<svg xmlns="http://www.w3.org/2000/svg" viewBox="0 0 547.21 547.21">
  <path d="M273.6 0c75.42,0 143.82,29.81 192.92,80.68 49.11,49.11 80.68,117.51 80.68,192.92 0,75.42 -31.57,143.82 -80.68,192.92 -49.11,49.11 -117.51,80.68 -192.92,80.68 -75.42,0 -143.82,-31.57 -192.92,-80.68 -50.86,-49.11 -80.68,-117.51 -80.68,-192.92 0,-75.42 29.81,-143.82 80.68,-192.92 49.11,-50.86 117.51,-80.68 192.92,-80.68z" fill="#45c19c" fill-rule="nonzero"/>
  <circle cx="273.6" cy="273.6" r="254.31" fill="#ffffff"/>
  <path d="M199.19 201.44l188.08 0c14.52,0 26.39,11.88 26.39,26.39l0 161.68c0,14.52 -11.88,26.39 -26.39,26.39l-188.08 0 0 -214.47zm0 -12.85l12.85 0 0 -64.15 157.63 0 0 64.15 12.84 0 0 -77.01 -183.32 0 0 77.01zm-30.43 -27l-17.63 0c-9.68,0 -17.59,7.91 -17.59,17.59l0 219.14c0,9.68 7.91,17.59 17.59,17.59l17.63 0c9.68,0 17.59,-7.91 17.59,-17.59l0 -219.14c0,-9.68 -7.91,-17.59 -17.59,-17.59zm89.55 181.8c7.41,0 13.4,6 13.4,13.4 0,7.4 -6,13.4 -13.4,13.4 -7.4,0 -13.39,-6.01 -13.39,-13.4 0,-7.41 6,-13.4 13.39,-13.4zm0 -96.22c7.41,0 13.4,6 13.4,13.4 0,7.4 -6,13.39 -13.4,13.39 -7.4,0 -13.39,-6 -13.39,-13.39 0,-7.41 6,-13.4 13.39,-13.4zm48.11 0c7.41,0 13.4,6 13.4,13.4 0,7.4 -6,13.39 -13.4,13.39 -7.4,0 -13.39,-6 -13.39,-13.39 0,-7.41 6,-13.4 13.39,-13.4zm48.11 0c7.41,0 13.4,6 13.4,13.4 0,7.4 -6,13.39 -13.4,13.39 -7.4,0 -13.39,-6 -13.39,-13.39 0,-7.41 6,-13.4 13.39,-13.4zm-96.22 48.11c7.41,0 13.4,6 13.4,13.4 0,7.4 -6,13.39 -13.4,13.39 -7.4,0 -13.39,-6 -13.39,-13.39 0,-7.41 6,-13.4 13.39,-13.4zm48.11 0c7.41,0 13.4,6 13.4,13.4 0,7.4 -6,13.39 -13.4,13.39 -7.4,0 -13.39,-6 -13.39,-13.39 0,-7.41 6,-13.4 13.39,-13.4zm0 48.11c7.41,0 13.4,6 13.4,13.4 0,7.4 -6,13.4 -13.4,13.4 -7.4,0 -13.39,-6.01 -13.39,-13.4 0,-7.41 6,-13.4 13.39,-13.4zm48.11 0c7.41,0 13.4,6 13.4,13.4 0,7.4 -6,13.4 -13.4,13.4 -7.4,0 -13.39,-6.01 -13.39,-13.4 0,-7.41 6,-13.4 13.39,-13.4zm0 -48.11c7.41,0 13.4,6 13.4,13.4 0,7.4 -6,13.39 -13.4,13.39 -7.4,0 -13.39,-6 -13.39,-13.39 0,-7.41 6,-13.4 13.39,-13.4z" fill="#45c19c"/>
</svg>
