<?xml version="1.0" encoding="UTF-8"?>
<!DOCTYPE svg PUBLIC "-//W3C//DTD SVG 1.0//EN" "http://www.w3.org/TR/2001/REC-SVG-20010904/DTD/svg10.dtd">
<!-- Creator: CorelDRAW 2020 (64-Bit) -->
<svg xmlns="http://www.w3.org/2000/svg" xml:space="preserve" width="29px" height="29px" version="1.0" style="shape-rendering:geometricPrecision; text-rendering:geometricPrecision; image-rendering:optimizeQuality; fill-rule:evenodd; clip-rule:evenodd"
viewBox="0 0 19.34 19.34"
 xmlns:xlink="http://www.w3.org/1999/xlink"
 xmlns:xodm="http://www.corel.com/coreldraw/odm/2003">
 <defs>
  <style type="text/css">
   <![CDATA[
    .fil1 {fill:white}
    .fil0 {fill:#45c19c;fill-rule:nonzero}
    .fil2 {fill:#45c19c;fill-rule:nonzero}
   ]]>
  </style>
 </defs>
 <g id="Layer_x0020_1">
  <metadata id="CorelCorpID_0Corel-Layer"/>
  <path class="fil0" d="M9.67 0c2.67,0 5.08,1.08 6.83,2.83 1.75,1.75 2.84,4.17 2.84,6.84 0,2.67 -1.09,5.08 -2.84,6.83 -1.75,1.75 -4.16,2.84 -6.83,2.84 -2.67,0 -5.09,-1.09 -6.84,-2.84 -1.75,-1.75 -2.83,-4.16 -2.83,-6.83 0,-2.67 1.08,-5.09 2.83,-6.84 1.75,-1.75 4.17,-2.83 6.84,-2.83z"/>
  <circle class="fil1" cx="9.67" cy="9.67" r="9.17"/>
  <path class="fil2" d="M8.1 4.81c1.73,-0.61 3.78,-0.21 5.11,1.06 -0.48,0.49 -0.97,0.96 -1.44,1.45 -0.68,-0.65 -1.69,-0.92 -2.6,-0.72 -1.06,0.22 -1.95,1.04 -2.31,2.06 -0.21,0.65 -0.2,1.36 0,2.01 0.31,0.89 1.01,1.64 1.9,1.95 0.91,0.33 1.97,0.2 2.79,-0.32 0.53,-0.37 0.91,-0.95 1.01,-1.59 -0.92,0 -1.85,0 -2.78,0 0,-0.67 0,-1.33 0,-2 1.61,0 3.21,0 4.82,0 0.32,1.71 -0.11,3.65 -1.43,4.85 -0.75,0.7 -1.73,1.09 -2.74,1.2 -1.21,0.16 -2.49,-0.13 -3.51,-0.82 -0.74,-0.49 -1.34,-1.18 -1.74,-1.97 -0.5,-1.03 -0.69,-2.22 -0.43,-3.35 0.08,-0.44 0.24,-0.86 0.43,-1.26 0.6,-1.18 1.67,-2.12 2.92,-2.55z"/>
 </g>
</svg>
