<?xml version="1.0" encoding="UTF-8"?>
<!DOCTYPE svg PUBLIC "-//W3C//DTD SVG 1.1//EN" "http://www.w3.org/Graphics/SVG/1.1/DTD/svg11.dtd">
<!-- Creator: CorelDRAW -->
<svg xmlns="http://www.w3.org/2000/svg" xml:space="preserve" width="7.6728mm" height="7.6728mm" version="1.1" style="shape-rendering:geometricPrecision; text-rendering:geometricPrecision; image-rendering:optimizeQuality; fill-rule:evenodd; clip-rule:evenodd"
viewBox="0 0 767.28 767.28"
 xmlns:xlink="http://www.w3.org/1999/xlink"
 xmlns:xodm="http://www.corel.com/coreldraw/odm/2003">
 <defs>
  <style type="text/css">
   <![CDATA[
    .fil1 {fill:white}
    .fil0 {fill:#45c19c;fill-rule:nonzero}
    .fil2 {fill:#45c19c;fill-rule:nonzero}
   ]]>
  </style>
 </defs>
 <g id="Layer_x0020_1">
  <metadata id="CorelCorpID_0Corel-Layer"/>
  <path class="fil0" d="M383.64 0c106.47,0 201.92,42.22 271.67,111.97 69.75,69.75 111.97,165.21 111.97,271.67 0,106.47 -42.22,201.92 -111.97,271.67 -69.75,69.75 -165.21,111.97 -271.67,111.97 -106.47,0 -201.92,-42.22 -271.67,-111.97 -69.75,-69.75 -111.97,-165.21 -111.97,-271.67 0,-106.47 42.22,-201.92 111.97,-271.67 69.75,-69.75 165.21,-111.97 271.67,-111.97z"/>
  <circle class="fil1" cx="383.64" cy="383.64" r="363.45"/>
  <path class="fil2" d="M352.46 157.94l62.35 0c19.94,0 39.9,0 59.85,2.5 29.92,0 62.35,7.48 84.79,24.94 22.44,17.45 34.91,39.9 42.4,67.33 4.98,22.44 4.98,47.38 4.98,72.32 0,9.98 0,17.46 2.5,27.44l0 59.85c-2.5,22.44 -2.5,47.38 -2.5,69.83 -2.49,29.92 -12.47,59.85 -29.92,82.29 -17.46,19.95 -42.4,32.42 -67.34,37.41 -19.95,4.99 -37.41,4.99 -57.35,4.99 -4.99,0 -9.98,0 -14.96,2.5l-117.21 0c-27.44,-2.5 -54.87,-2.5 -79.81,-12.48 -24.93,-7.48 -44.88,-22.44 -59.85,-44.88 -7.48,-12.47 -14.96,-27.43 -17.45,-44.89 -4.99,-19.95 -4.99,-39.9 -4.99,-62.34l0 -124.7c0,-19.95 0,-39.9 4.99,-59.85 2.49,-14.96 7.48,-29.93 14.96,-42.4 14.96,-22.44 34.91,-39.9 59.85,-49.87 19.95,-4.99 39.9,-7.49 59.85,-9.98 17.46,0 37.41,0 54.87,0l-0.01 -0.01zm-62.35 39.9c-19.95,2.49 -42.4,7.48 -59.85,19.95 -14.96,9.98 -22.44,27.43 -27.43,44.89 -4.99,22.44 -4.99,44.88 -4.99,64.84 0,24.93 0,49.87 0,72.32 0,27.43 -2.49,52.37 0,77.31 2.49,14.96 4.99,29.92 9.98,42.39 7.48,14.96 19.95,27.44 32.42,34.92 14.96,7.48 32.42,9.98 47.38,9.98 24.94,2.49 49.87,2.49 72.32,2.49 29.93,0 57.36,0 84.79,0 19.95,0 39.91,0 59.85,-4.99 14.96,-2.49 27.44,-9.97 39.91,-22.44 9.98,-9.98 14.96,-24.94 17.45,-39.9 4.99,-19.95 4.99,-39.91 4.99,-62.35 0,-27.43 0,-57.36 0,-87.28 0,-22.45 0,-44.89 0,-64.85 -2.49,-19.94 -7.48,-39.9 -19.95,-54.86 -9.97,-12.47 -24.93,-19.95 -39.9,-24.94 -22.44,-7.48 -44.89,-7.48 -67.34,-7.48 -17.45,0 -37.41,0 -54.86,0 -4.99,0 -9.98,0 -14.96,0 -27.43,0 -52.37,0 -79.8,0l-0.01 0zm206.99 37.41c12.47,-2.49 27.43,7.48 32.42,19.95 4.99,12.47 -2.49,27.43 -14.96,32.42 -12.47,4.99 -27.43,0 -32.42,-9.98 -9.98,-9.98 -7.48,-24.94 2.5,-34.91 4.98,-2.5 7.48,-4.99 12.47,-7.49l-0.01 0.01zm-129.67 32.42c22.44,-2.49 47.38,2.49 67.33,12.47 24.94,12.47 44.89,32.42 54.86,57.36 9.98,22.44 12.48,49.87 4.99,72.32 -4.99,24.94 -17.45,44.89 -34.91,59.86 -19.95,17.45 -42.4,27.43 -67.34,27.43 -24.93,2.49 -49.87,-2.5 -72.32,-17.46 -19.95,-12.47 -37.41,-34.91 -44.89,-59.85 -9.97,-22.44 -9.97,-49.87 -2.49,-72.32 7.48,-24.94 24.94,-44.89 44.88,-59.85 14.96,-9.98 32.43,-17.46 49.88,-19.95l0.01 -0.01zm7.47 39.9c-27.43,2.5 -52.37,22.45 -62.34,47.38 -7.49,17.46 -7.49,39.91 2.49,57.36 4.99,14.96 14.96,24.94 27.43,34.92 12.47,7.48 29.93,12.47 44.89,9.97 14.96,0 29.92,-4.98 39.9,-14.95 14.96,-9.98 22.44,-22.45 27.43,-37.41 4.99,-17.46 4.99,-34.92 -2.49,-49.88 -4.99,-14.96 -17.46,-29.93 -34.92,-37.41 -12.47,-7.48 -27.43,-9.98 -42.39,-9.98l0 0z"/>
 </g>
</svg>
