<svg xmlns="http://www.w3.org/2000/svg" viewBox="0 0 547.21 547.21"><g><path fill="#45c19c" d="M273.6 0c75.42,0 143.82,29.81 192.92,80.68 49.11,49.11 80.68,117.51 80.68,192.92 0,75.42 -31.57,143.82 -80.68,192.92 -49.11,49.11 -117.51,80.68 -192.92,80.68 -75.42,0 -143.82,-31.57 -192.92,-80.68 -50.86,-49.11 -80.68,-117.51 -80.68,-192.92 0,-75.42 29.81,-143.82 80.68,-192.92 49.11,-50.86 117.51,-80.68 192.92,-80.68z" /><circle fill="#ffffff" cx="273.6" cy="273.6" r="254.31" /><path fill="#45c19c" d="M273.6 103.3c62.73,0 113.58,50.86 113.58,113.58 0,50.72 -82.96,174 -113.58,227.02 -30.62,-53.03 -113.58,-176.29 -113.58,-227.02 0,-62.73 50.86,-113.58 113.58,-113.58zm0 57.49c26.83,0 48.56,21.75 48.56,48.57 0,26.82 -21.74,48.56 -48.56,48.56 -26.83,0 -48.56,-21.75 -48.56,-48.56 0,-26.83 21.74,-48.57 48.56,-48.57z" /></g></svg>