<?xml version="1.0" encoding="UTF-8"?>
<!DOCTYPE svg PUBLIC "-//W3C//DTD SVG 1.0//EN" "http://www.w3.org/TR/2001/REC-SVG-20010904/DTD/svg10.dtd">
<!-- Creator: CorelDRAW 2020 (64-Bit) -->
<svg xmlns="http://www.w3.org/2000/svg" xml:space="preserve" width="21px" height="21px" version="1.0" style="shape-rendering:geometricPrecision; text-rendering:geometricPrecision; image-rendering:optimizeQuality; fill-rule:evenodd; clip-rule:evenodd"
viewBox="0 0 3.12 3.12"
 xmlns:xlink="http://www.w3.org/1999/xlink"
 xmlns:xodm="http://www.corel.com/coreldraw/odm/2003">
 <defs>
  <style type="text/css">
   <![CDATA[
    .fil2 {fill:#45c19c}
    .fil1 {fill:white}
    .fil0 {fill:#45c19c;fill-rule:nonzero}
   ]]>
  </style>
 </defs>
 <g id="Layer_x0020_1">
  <metadata id="CorelCorpID_0Corel-Layer"/>
  <path class="fil0" d="M1.56 0c0.43,0 0.82,0.17 1.1,0.46 0.28,0.28 0.46,0.67 0.46,1.1 0,0.43 -0.18,0.82 -0.46,1.1 -0.28,0.28 -0.67,0.46 -1.1,0.46 -0.43,0 -0.82,-0.18 -1.1,-0.46 -0.29,-0.28 -0.46,-0.67 -0.46,-1.1 0,-0.43 0.17,-0.82 0.46,-1.1 0.28,-0.29 0.67,-0.46 1.1,-0.46z"/>
  <circle class="fil1" cx="1.56" cy="1.56" r="1.45"/>
  <path class="fil2" d="M0.73 1.11c0,0.14 0.03,0.17 0.07,0.28 0.06,0.2 0.13,0.29 0.25,0.44 0.03,0.04 0.07,0.07 0.09,0.1 0.01,0.01 0.01,0.02 0.02,0.02l0.12 0.11c0.04,0.04 0.09,0.08 0.13,0.11 0.11,0.07 0.18,0.11 0.31,0.15 0.02,0.01 0.04,0.01 0.06,0.02 0.06,0.02 0.12,0.04 0.19,0.04l0.05 0c0.04,0 0.08,-0.01 0.13,-0.03 0.07,-0.03 0.18,-0.09 0.2,-0.16 0.02,-0.05 0.03,-0.1 0.03,-0.16 0,-0.02 -0.02,-0.04 -0.03,-0.05l-0.15 -0.08c-0.02,-0.01 -0.04,-0.02 -0.05,-0.03 -0.02,-0.01 -0.04,-0.02 -0.05,-0.03 -0.11,-0.07 -0.12,-0.1 -0.24,0.05 -0.1,0.13 -0.11,0.12 -0.22,0.06 -0.16,-0.1 -0.26,-0.17 -0.38,-0.33 -0.03,-0.05 -0.06,-0.09 -0.09,-0.14 -0.07,-0.11 -0.08,-0.12 0.06,-0.23 0.17,-0.13 0.1,-0.13 0.02,-0.28 -0.01,-0.02 -0.02,-0.03 -0.03,-0.05l-0.07 -0.13c-0.03,-0.05 -0.03,-0.06 -0.08,-0.06 -0.04,0 -0.11,0.02 -0.14,0.03 -0.1,0.04 -0.2,0.24 -0.2,0.35z"/>
 </g>
</svg>
