<svg xmlns="http://www.w3.org/2000/svg" viewBox="0 0 547.21 547.21"><g><path fill="#45c19c" d="M273.6 0c75.42,0 143.82,29.81 192.92,80.68 49.11,49.11 80.68,117.51 80.68,192.92 0,75.42 -31.57,143.82 -80.68,192.92 -49.11,49.11 -117.51,80.68 -192.92,80.68 -75.42,0 -143.82,-31.57 -192.92,-80.68 -50.86,-49.11 -80.68,-117.51 -80.68,-192.92 0,-75.42 29.81,-143.82 80.68,-192.92 49.11,-50.86 117.51,-80.68 192.92,-80.68z" /><circle fill="#ffffff" cx="273.6" cy="273.6" r="254.31" /><path fill="#45c19c" d="M273.6 87.45c51.37,0 97.91,20.85 131.59,54.52 33.72,33.73 54.57,80.27 54.57,131.64 0,51.37 -20.85,97.91 -54.52,131.59 -33.73,33.72 -80.27,54.57 -131.64,54.57 -51.37,0 -97.91,-20.85 -131.59,-54.52 -33.72,-33.73 -54.57,-80.27 -54.57,-131.64 0,-51.37 20.85,-97.91 54.52,-131.59 33.73,-33.72 80.27,-54.57 131.64,-54.57zm106.03 185.93c0,4.05 -1.66,7.75 -4.33,10.42 -2.69,2.69 -6.39,4.35 -10.44,4.35l-106.12 0 0 -150.11c0,-4.05 1.66,-7.75 4.33,-10.42 2.69,-2.69 6.39,-4.35 10.44,-4.35 4.04,0 7.74,1.65 10.42,4.33 2.69,2.69 4.35,6.39 4.35,10.44l0 120.57 76.57 0c4.05,0 7.75,1.66 10.42,4.33 2.7,2.7 4.35,6.4 4.35,10.44zm8.21 -114.02c-29.22,-29.21 -69.63,-47.29 -114.24,-47.29 -44.61,0 -85.02,18.08 -114.24,47.29 -29.21,29.22 -47.29,69.63 -47.29,114.24 0,44.61 18.08,85.02 47.29,114.24 29.22,29.21 69.63,47.29 114.24,47.29 44.61,0 85.02,-18.08 114.24,-47.29 29.21,-29.22 47.29,-69.63 47.29,-114.24 0,-44.61 -18.08,-85.02 -47.29,-114.24z" /></g></svg>