<?xml version="1.0" encoding="UTF-8"?>
<!DOCTYPE svg PUBLIC "-//W3C//DTD SVG 1.1//EN" "http://www.w3.org/Graphics/SVG/1.1/DTD/svg11.dtd">
<!-- Creator: CorelDRAW -->
<svg xmlns="http://www.w3.org/2000/svg" xml:space="preserve" width="7.6728mm" height="7.6728mm" version="1.1" style="shape-rendering:geometricPrecision; text-rendering:geometricPrecision; image-rendering:optimizeQuality; fill-rule:evenodd; clip-rule:evenodd"
viewBox="0 0 18.04 18.04"
 xmlns:xlink="http://www.w3.org/1999/xlink"
 xmlns:xodm="http://www.corel.com/coreldraw/odm/2003">
 <defs>
  <style type="text/css">
   <![CDATA[
    .fil1 {fill:white}
    .fil0 {fill:#45c19c;fill-rule:nonzero}
    .fil2 {fill:#45c19c;fill-rule:nonzero}
   ]]>
  </style>
 </defs>
 <g id="Layer_x0020_1">
  <metadata id="CorelCorpID_0Corel-Layer"/>
  <path class="fil0" d="M9.03 0c2.47,0 4.72,1.01 6.36,2.65 1.63,1.63 2.65,3.89 2.65,6.38 0,2.47 -1.01,4.72 -2.65,6.36 -1.63,1.63 -3.89,2.65 -6.36,2.65 -2.49,0 -4.75,-1.01 -6.38,-2.65 -1.63,-1.63 -2.65,-3.89 -2.65,-6.36 0,-2.49 1.01,-4.75 2.65,-6.38 1.63,-1.63 3.89,-2.65 6.38,-2.65z"/>
  <circle class="fil1" cx="9.03" cy="9.03" r="8.54"/>
  <path class="fil2" d="M9.99 8.24l3.77 -4.38 -0.89 0 -3.27 3.8 -2.61 -3.8 -3.02 0 3.95 5.75 -3.95 4.6 0.89 0 3.46 -4.02 2.76 4.02 3.02 0 -4.1 -5.97 0 0zm-1.22 1.42l-0.4 -0.57 -3.19 -4.56 1.37 0 2.57 3.68 0.4 0.57 3.34 4.78 -1.37 0 -2.73 -3.9 0 -0z"/>
 </g>
</svg>
