<?xml version="1.0" encoding="UTF-8"?>
<!DOCTYPE svg PUBLIC "-//W3C//DTD SVG 1.0//EN" "http://www.w3.org/TR/2001/REC-SVG-20010904/DTD/svg10.dtd">
<!-- Creator: CorelDRAW 2020 (64-Bit) -->
<svg xmlns="http://www.w3.org/2000/svg" xml:space="preserve" width="120px" height="120px" version="1.0" style="shape-rendering:geometricPrecision; text-rendering:geometricPrecision; image-rendering:optimizeQuality; fill-rule:evenodd; clip-rule:evenodd"
viewBox="0 0 120 120"
 xmlns:xlink="http://www.w3.org/1999/xlink"
 xmlns:xodm="http://www.corel.com/coreldraw/odm/2003">
 <defs>
  <style type="text/css">
   <![CDATA[
    .fil1 {fill:none}
    .fil0 {fill:#d6ba8b;fill-rule:nonzero}
   ]]>
  </style>
 </defs>
 <g id="Layer_x0020_1">
  <metadata id="CorelCorpID_0Corel-Layer"/>
  <g id="_1697727735344">
   <g>
    <g id="__x0023_04070aff">
     <g>
      <path class="fil0" d="M53.85 6.3c4.34,-3.96 11.74,-3.65 15.76,0.64 4.28,-1.57 9.04,-0.92 12.42,2.22 3.52,-1.32 7.86,0.02 9.34,3.64 0.55,2 2.88,1.29 4.37,1.9 3.38,0.65 4.6,4.38 4.7,7.39 3.87,1.12 6.31,4.96 6.13,8.91 -0.26,8.23 -1.53,16.45 -3.55,24.43 -0.17,1.86 -0.35,3.73 -0.9,5.53 -0.95,11.56 -2.01,23.1 -2.67,34.69 -0.12,7.8 -4.8,15.37 -11.87,18.74 -8.96,4.55 -20.93,1.44 -26.55,-6.88 -2.98,-3.83 -3.61,-8.81 -3.74,-13.51 -5.92,4.83 -10.49,11.4 -17.48,14.84 -3.17,1.7 -6.87,1.74 -10.36,1.95 -5.2,0.11 -10.4,0.07 -15.59,-0.01 0.04,-1.14 0.07,-2.29 0.12,-3.43 6.7,-0.06 13.42,0.35 20.08,-0.42 4.43,-0.53 8.03,-3.47 11.22,-6.38 3.99,-3.79 7.76,-7.82 11.96,-11.39 2.55,-1.73 4.28,-4.38 6.91,-6.01 3.23,-4.26 9.54,-6.44 10.33,-12.24 -1.17,-2.92 -3.98,-5.66 -7.35,-4.81 -3.43,1.84 -5.63,5.3 -8.9,7.41 -3.73,2.52 -6.61,6.82 -11.3,7.53 -0.48,-4.18 -1.12,-8.78 0.55,-12.73 0.36,-0.18 1.06,-0.51 1.41,-0.69l-0.1 -0.89 0.75 0.25c1.47,-1.84 3.41,-3.21 4.98,-4.96 -0.82,-3.42 -1.98,-6.75 -3,-10.12 -4.57,1.39 -8.91,3.34 -13.06,5.7 -1.95,2.82 -4.1,5.49 -6.31,8.1 -3.59,5.19 -7.23,10.38 -11.19,15.29 -1.36,2.38 -4.45,2.06 -6.73,2.8 -0.27,-1.08 -0.53,-2.17 -0.81,-3.24 1.9,-0.68 4.28,-0.77 5.45,-2.64 2.04,-2.59 3.77,-5.42 6.18,-7.71 1.98,-3.88 4.99,-7.1 7.5,-10.64 1.78,-2.17 3.03,-5.24 6.11,-5.75 1.88,-0.77 3.71,-1.64 5.51,-2.55 2.07,-1.22 4.27,-2.16 6.5,-3.02 -0.66,-4.92 -0.04,-9.89 1.35,-14.63 1.27,-4.35 -1.5,-8.35 -2.26,-12.51 -1.47,-5.18 0.06,-11.19 4.09,-14.8l0 0zm0.44 5.04c-2.6,4.09 -1.41,9.17 0.27,13.37 1.7,3.97 1.52,8.46 0.22,12.51 -1.51,4.53 -0.79,9.34 -0.08,13.94 2.33,5.17 3.64,10.74 4.85,16.26 3.21,-1.29 5.35,-4.79 9.01,-4.92 6.79,-0.1 11.48,8.77 7.54,14.3 -1.71,1.94 -3.64,3.69 -5.82,5.1 -3.07,2.84 -5.87,6.03 -9.29,8.44 0.18,3.88 -0.45,7.94 1.09,11.63 3.23,8.64 14.08,13.42 22.6,9.82 5.9,-2.29 10.33,-7.97 11.06,-14.26 1.14,-10.6 1.04,-21.33 2.98,-31.83 0.19,-2.44 0.24,-4.92 0.86,-7.29 1.11,-6.4 1.84,-12.84 2.84,-19.24 0.28,-3.68 1.27,-7.53 0.03,-11.13 -0.53,-1.36 -1.86,-1.97 -3.13,-2.41 -0.64,3.12 -0.66,6.32 -1.13,9.44 -1,0.17 -1.99,0.3 -2.98,0.37 -1.23,-5.64 1.89,-11.07 1.05,-16.65 -1.26,-0.48 -2.53,-0.92 -3.8,-1.32 -1.23,4.25 -1.94,8.66 -1.96,13.07 1.58,0.79 4.19,1.6 2.98,3.89 -1.91,1 -3.74,-0.45 -5.56,-0.88 -6.81,-2.25 -14,-1.3 -20.99,-0.93 -0.03,-3.1 1.63,-5.83 2.1,-8.83 1.07,-4.87 1.28,-10.69 -2.28,-14.63 -3.53,-3.64 -10.3,-2.35 -12.46,2.18l0 0zm17.55 -1.51c2.2,6.13 1.44,12.75 -0.38,18.87 2.19,-0.11 4.38,-0.21 6.56,-0.26 0.19,-4.04 0.73,-8.05 1.48,-12.02 0.41,-1.98 0.29,-4.39 -1.44,-5.71 -1.7,-1.6 -4.17,-0.93 -6.22,-0.88l0 0zm11.42 2.6c-0.02,5.46 -1.75,10.77 -1.52,16.27 1.7,0.29 3.4,0.54 5.11,0.81 0.01,-4.47 1.46,-8.73 1.83,-13.14 0.4,-1.97 -1.44,-3 -2.6,-4.2 -0.7,0.07 -2.11,0.19 -2.82,0.26l0 0zm-33.33 58.46c0.06,1.54 0.12,3.08 0.18,4.61 2.16,-1.74 4.35,-3.46 6.4,-5.34 -0.38,-1.45 -0.75,-2.9 -1.14,-4.35 -1.74,1.78 -3.59,3.43 -5.44,5.08z"/>
     </g>
     <g>
      <path class="fil0" d="M84.8 45.6c0.6,0.07 1.81,0.21 2.42,0.27 1.96,6.42 4.23,13.01 3.37,19.84 -0.81,4.84 -0.91,9.89 -3.11,14.39 -0.33,1.4 -1.98,0.67 -2.97,0.83 -1.17,-3.18 -2.17,-6.44 -2.76,-9.78 -0.66,-8.6 -0.41,-17.51 3.05,-25.55l0 0zm0.77 8.12c-0.59,6.23 -2.57,13.14 0.39,19.04 0.27,-0.62 0.79,-1.86 1.05,-2.48 0.43,-5.76 0.16,-11.59 -1.11,-17.24l1.42 -0.45c-0.89,-0.49 -2,-0.12 -1.75,1.13z"/>
     </g>
    </g>
   </g>
   <rect class="fil1" width="120" height="120"/>
  </g>
 </g>
</svg>
