<?xml version="1.0" encoding="UTF-8"?>
<!DOCTYPE svg PUBLIC "-//W3C//DTD SVG 1.0//EN" "http://www.w3.org/TR/2001/REC-SVG-20010904/DTD/svg10.dtd">
<!-- Creator: CorelDRAW 2020 (64-Bit) -->
<svg xmlns="http://www.w3.org/2000/svg" xml:space="preserve" width="120px" height="120px" version="1.0" style="shape-rendering:geometricPrecision; text-rendering:geometricPrecision; image-rendering:optimizeQuality; fill-rule:evenodd; clip-rule:evenodd"
viewBox="0 0 120 120"
 xmlns:xlink="http://www.w3.org/1999/xlink"
 xmlns:xodm="http://www.corel.com/coreldraw/odm/2003">
 <defs>
  <style type="text/css">
   <![CDATA[
    .fil1 {fill:none}
    .fil0 {fill:#d6ba8b;fill-rule:nonzero}
   ]]>
  </style>
 </defs>
 <g id="Layer_x0020_1">
  <metadata id="CorelCorpID_0Corel-Layer"/>
  <path class="fil0" d="M41.01 73.15c6.35,-0.36 31.06,-1.99 40.96,-5.71 0.5,-4.53 1.09,-8.96 1.76,-12.82 -18.6,4.9 -38.65,6.35 -45.07,6.71 1.1,4.1 1.84,7.99 2.35,11.82zm40.78 -41.16c0,0.9 -0.73,1.63 -1.63,1.63 -0.9,0 -1.63,-0.73 -1.63,-1.63 0,-5.02 0.64,-7.8 1.2,-10.25 0.21,-0.94 0.41,-1.82 0.56,-2.82l0.01 -0.04c0.02,-0.18 0.04,-0.37 0.04,-0.56 0,-0.94 -0.35,-1.78 -0.91,-2.4 -0.58,-0.63 -1.39,-1.07 -2.28,-1.2 -0.19,-0.03 -0.39,-0.04 -0.6,-0.04 -0.41,0 -0.82,0.05 -1.18,0.15 -0.12,0.03 -0.24,0.06 -0.35,0.11 -0.17,1.18 -0.4,2.29 -0.64,3.47 -0.54,2.65 -1.14,5.62 -1.25,10.47 0.87,0.3 1.75,0.64 2.61,1.02 0.83,0.36 1.2,1.33 0.84,2.15 -0.36,0.83 -1.33,1.2 -2.15,0.84 -11.31,-4.99 -23.92,-2.21 -23.95,-2.2 -0.89,0.18 -1.75,-0.38 -1.94,-1.26 -0.07,-0.35 -0.03,-0.7 0.1,-1 1.27,-2.88 2.09,-6.01 2.53,-8.86 0.51,-3.34 0.51,-6.25 0.11,-7.94l-0.01 -0.06c-0.75,-3.2 -2.04,-5.26 -3.55,-6.52 -1.88,-1.57 -4.18,-1.94 -6.2,-1.75 -2.35,0.23 -4.3,1.31 -5.74,2.98 -1.56,1.82 -2.55,4.34 -2.83,7.26 -0.24,2.39 0.76,5.37 1.71,8.21 0.12,0.4 0.28,0.79 0.39,1.2 1.74,7.53 1.06,10.36 0.25,13.7 -0.47,1.94 -0.99,4.07 -0.99,7.69 0,0.47 0.02,0.92 0.06,1.38l50.92 0c0.44,-2.75 0.83,-5.37 1.14,-7.74 0.57,-4.54 0.83,-8.19 0.56,-10.23 -0.21,-1.58 -0.8,-2.73 -1.61,-3.49l-0.07 -0.07c-0.71,-0.63 -1.59,-0.99 -2.55,-1.11 -0.48,2.16 -0.97,4.69 -0.97,8.91zm-6.87 -20.41c0.53,-0.11 1.08,-0.17 1.63,-0.17 0.36,0 0.72,0.03 1.08,0.08 1.64,0.25 3.13,1.06 4.21,2.25 1.09,1.2 1.77,2.79 1.77,4.58 0,0.32 -0.03,0.67 -0.08,1.03l0 0.05 -0.08 0.48c1.49,0.24 2.89,0.86 4.05,1.91l0.11 0.09c1.33,1.25 2.3,3.06 2.61,5.45 0.31,2.33 0.04,6.26 -0.56,11.06 -0.6,4.71 -1.53,10.28 -2.57,15.97 -2.52,13.79 -3.81,35.86 -4.24,43.2l-0.07 1.12c-0.35,5.95 -2.9,11.35 -6.92,15.22 -3.9,3.77 -9.2,6.1 -15.22,6.1 -6.11,0 -11.64,-2.39 -15.64,-6.25 -4.02,-3.88 -6.51,-9.25 -6.51,-15.17l0 -0.04c0.23,-7.88 0.32,-14.81 -0.35,-21.77 -0.67,-6.93 -2.09,-13.91 -4.87,-21.93 -0.57,-1.65 -1.13,-3.32 -1.53,-4.99 -0.42,-1.78 -0.7,-3.62 -0.7,-5.51 0,-3.97 0.57,-6.32 1.09,-8.46 0.71,-2.92 1.31,-5.4 -0.25,-12.17l-0.31 -0.93c-1.06,-3.16 -2.17,-6.48 -1.87,-9.54 0.35,-3.6 1.61,-6.76 3.6,-9.08 1.98,-2.31 4.67,-3.8 7.93,-4.1 2.75,-0.26 5.91,0.27 8.57,2.49 0.55,0.46 1.09,0.99 1.58,1.61 0.45,-0.32 0.93,-0.58 1.44,-0.78l0.09 -0.04c1.13,-0.45 2.38,-0.64 3.76,-0.64 0.47,0 0.94,0.04 1.41,0.11 2.05,0.3 3.91,1.26 5.26,2.7 0.23,0.25 0.44,0.51 0.64,0.77 0.3,-0.14 0.61,-0.27 0.93,-0.38 0.82,-0.28 1.69,-0.42 2.57,-0.42 0.32,0 0.66,0.02 1.01,0.07 1.85,0.26 3.52,1.2 4.72,2.61 0.81,0.95 1.41,2.12 1.71,3.42zm-5.02 16.34c0.16,-4.63 0.75,-7.54 1.29,-10.16 0.24,-1.17 0.46,-2.29 0.63,-3.47 0.03,-0.25 0.05,-0.52 0.05,-0.8 0,-1.27 -0.44,-2.39 -1.14,-3.21 -0.69,-0.81 -1.64,-1.36 -2.69,-1.5 -0.16,-0.02 -0.35,-0.03 -0.56,-0.03 -0.54,0 -1.05,0.08 -1.52,0.24 -0.22,0.07 -0.42,0.16 -0.62,0.26 0.14,0.62 0.22,1.27 0.22,1.95 0,0.44 -0.04,0.9 -0.11,1.38 -0.15,1.01 -0.34,2.06 -0.53,3.1 -0.5,2.78 -0.99,5.42 -1.07,11.21 1.94,0.2 3.98,0.52 6.05,1.03zm-9.31 -1.24c0.1,-5.95 0.6,-8.69 1.13,-11.58 0.16,-0.88 0.32,-1.78 0.5,-3 0.05,-0.3 0.07,-0.6 0.07,-0.9 0,-1.39 -0.51,-2.58 -1.33,-3.46 -0.85,-0.91 -2.03,-1.51 -3.35,-1.7 -0.3,-0.05 -0.61,-0.07 -0.94,-0.07 -0.98,0 -1.84,0.12 -2.56,0.41l-0.07 0.02c-0.33,0.14 -0.64,0.32 -0.93,0.54 0.54,1.12 0.99,2.41 1.34,3.88l0.02 0.07c0.47,2.06 0.5,5.43 -0.07,9.16 -0.35,2.24 -0.91,4.64 -1.71,6.98 1.93,-0.23 4.69,-0.45 7.9,-0.35zm21 44.33c-11.04,3.48 -33.8,5.01 -40.22,5.39l0.01 0.06c0.68,7.11 0.6,14.14 0.37,22.12 0.01,5.01 2.11,9.54 5.51,12.82 3.42,3.29 8.15,5.33 13.38,5.33 5.13,0 9.64,-1.98 12.96,-5.18 3.44,-3.31 5.62,-7.95 5.92,-13.06l0.07 -1.13c0.28,-4.73 0.91,-15.52 2,-26.35zm-46.7 -22.02l0.03 0.1c0.39,1.64 0.9,3.18 1.43,4.69 0.51,1.48 0.98,2.92 1.4,4.33 5.49,-0.28 27.12,-1.67 46.62,-7.03l0.37 -2.09 -49.85 0z"/>
  <rect class="fil1" width="120" height="120"/>
 </g>
</svg>
