<?xml version="1.0" encoding="UTF-8"?>
<!DOCTYPE svg PUBLIC "-//W3C//DTD SVG 1.0//EN" "http://www.w3.org/TR/2001/REC-SVG-20010904/DTD/svg10.dtd">
<!-- Creator: CorelDRAW 2020 (64-Bit) -->
<svg xmlns="http://www.w3.org/2000/svg" xml:space="preserve" width="120px" height="120px" version="1.0" style="shape-rendering:geometricPrecision; text-rendering:geometricPrecision; image-rendering:optimizeQuality; fill-rule:evenodd; clip-rule:evenodd"
viewBox="0 0 120 120"
 xmlns:xlink="http://www.w3.org/1999/xlink"
 xmlns:xodm="http://www.corel.com/coreldraw/odm/2003">
 <defs>
  <style type="text/css">
   <![CDATA[
    .fil0 {fill:none}
    .fil1 {fill:#d6ba8b;fill-rule:nonzero}
   ]]>
  </style>
 </defs>
 <g id="Layer_x0020_1">
  <metadata id="CorelCorpID_0Corel-Layer"/>
  <rect class="fil0" width="120" height="120"/>
  <path class="fil1" d="M42.49 1.31c-0.02,0.05 -6.02,15.39 -13.17,24.87 -1.46,1.93 -2.89,3.7 -4.22,5.35 -5.26,6.5 -8.9,11.02 -7.82,18.67 0.87,6.19 6.52,8.34 12.13,10.48 3.55,1.36 7.1,2.71 9.84,5.07 8.07,6.95 12.45,13.08 15.93,17.96 5.83,8.16 8.94,12.51 24.71,10.5 1.63,-0.2 4.41,0.21 7.17,0.61 2.1,0.32 4.19,0.63 5.5,0.63 3.19,0 5.43,-0.74 6.95,-1.77 1.97,-1.35 2.77,-3.22 2.92,-4.59 0.24,-2.12 -0.06,-3.37 -0.77,-4.03 -0.76,-0.72 -2.15,-0.99 -3.95,-1.06 -25.72,-0.97 -27.13,-28.82 -27.77,-41.49 -0.06,-1.17 -0.11,-2.2 -0.19,-3.19 -0.89,-11.26 2.34,-24.41 2.35,-24.45l3.51 0.88c-0.01,0.03 -3.1,12.61 -2.26,23.29 0.07,0.8 0.13,1.97 0.19,3.29 0.28,5.5 0.71,14.1 3.45,21.74 1.87,0.8 3.93,1.48 6.19,2 2.58,0.61 5.41,1.01 8.5,1.18 3.21,0.17 5.67,0.46 7.45,1.45 1.78,1 2.78,2.5 2.96,4.89 0.67,0.22 1.27,0.49 1.81,0.83 2.09,1.36 2.96,3.51 2.53,7.22 -0.07,0.61 -0.23,1.28 -0.51,1.97 -0.11,0.28 -0.24,0.56 -0.39,0.84 0.54,1.3 0.72,2.95 0.49,5.05 -0.25,2.16 -1.47,5.1 -4.48,7.16 -2.07,1.41 -4.98,2.4 -8.98,2.4 -1.53,0 -3.77,-0.33 -6.02,-0.66 -2.54,-0.38 -5.09,-0.76 -6.2,-0.62l-1.14 0.14 5.89 4.47c0.79,0.6 0.95,1.73 0.35,2.52 -0.28,0.36 -0.65,0.59 -1.06,0.67l-12.43 2.7 -3.07 10.42c-0.28,0.96 -1.29,1.51 -2.24,1.23 -0.28,-0.09 -0.53,-0.23 -0.73,-0.42l-7.87 -7.44 -13.39 6.27c-0.9,0.42 -1.98,0.03 -2.4,-0.87 -0.17,-0.38 -0.21,-0.79 -0.12,-1.17l2.82 -12.03 -10.01 -3.9c-0.93,-0.36 -1.39,-1.4 -1.03,-2.33 0.12,-0.33 0.34,-0.61 0.61,-0.8l9.27 -6.78 -3.62 -11.57c-0.29,-0.95 0.24,-1.96 1.19,-2.26 0.31,-0.09 0.62,-0.1 0.91,-0.04l3.48 0.74c-2.36,-2.75 -5.22,-5.72 -8.85,-8.85 -2.24,-1.93 -5.51,-3.18 -8.78,-4.43 -6.6,-2.51 -13.24,-5.04 -14.41,-13.35 -1.31,-9.19 2.75,-14.21 8.58,-21.43 1.3,-1.61 2.69,-3.33 4.15,-5.26 6.85,-9.09 12.67,-23.97 12.69,-24.01l3.36 1.31zm29.14 85.81c-1.12,1.3 -2.79,1.84 -4.57,1.69l-0.19 -0.03c-1.52,-0.18 -3.14,-0.88 -4.52,-2.07 -1.45,-1.25 -2.39,-2.83 -2.76,-4.36l-0.03 -0.18c-0.36,-1.68 -0.04,-3.33 1.04,-4.58 1.11,-1.29 2.77,-1.84 4.56,-1.68 1.58,0.14 3.28,0.85 4.71,2.09 1.45,1.25 2.4,2.83 2.76,4.36 0.42,1.74 0.11,3.47 -1,4.76zm-4.26 -1.91c0.66,0.05 1.22,-0.09 1.53,-0.44 0.31,-0.36 0.37,-0.93 0.22,-1.57 -0.21,-0.85 -0.76,-1.74 -1.6,-2.47 -0.86,-0.74 -1.82,-1.16 -2.67,-1.23 -0.65,-0.06 -1.22,0.09 -1.53,0.45 -0.29,0.33 -0.36,0.86 -0.25,1.44l0.04 0.12c0.2,0.85 0.75,1.74 1.6,2.47 0.81,0.71 1.72,1.12 2.54,1.22l0.12 0.01zm6.4 13.11c-12.36,0.31 -15.79,-4.48 -21.53,-12.52 -0.9,-1.26 -1.86,-2.6 -2.92,-4.01l-4.78 -1.03 3.07 9.86c0.23,0.72 -0.01,1.52 -0.65,1.99l-7.65 5.59 8.31 3.24c0.88,0.28 1.42,1.21 1.2,2.13l-2.33 9.93 11.05 -5.17c0.67,-0.35 1.51,-0.27 2.09,0.28l6.62 6.26 2.51 -8.53c0.16,-0.66 0.68,-1.21 1.38,-1.36l9.65 -2.09 -6.02 -4.57zm5.94 -29.44c1.98,0.97 4.2,1.78 6.67,2.42 2.91,0.76 6.15,1.26 9.71,1.45 0.77,0.04 1.5,0.09 2.18,0.16 -0.19,-0.49 -0.49,-0.83 -0.9,-1.06 -1.16,-0.65 -3.18,-0.86 -5.88,-1 -3.34,-0.19 -6.37,-0.62 -9.13,-1.26 -0.91,-0.21 -1.79,-0.45 -2.65,-0.71zm3.12 5.14c3.47,3.65 8.29,6.13 15.01,6.38 1.94,0.08 3.62,0.37 4.97,1.09 0.01,-0.09 0.03,-0.18 0.03,-0.26 0.25,-2.12 -0.07,-3.24 -0.9,-3.78 -1.12,-0.72 -3.2,-0.94 -6.04,-1.1 -3.81,-0.2 -7.29,-0.74 -10.43,-1.56 -0.91,-0.23 -1.79,-0.49 -2.64,-0.77z"/>
 </g>
</svg>
