<?xml version="1.0" encoding="UTF-8"?>
<!DOCTYPE svg PUBLIC "-//W3C//DTD SVG 1.0//EN" "http://www.w3.org/TR/2001/REC-SVG-20010904/DTD/svg10.dtd">
<!-- Creator: CorelDRAW 2020 (64-Bit) -->
<svg xmlns="http://www.w3.org/2000/svg" xml:space="preserve" width="120px" height="120px" version="1.0" style="shape-rendering:geometricPrecision; text-rendering:geometricPrecision; image-rendering:optimizeQuality; fill-rule:evenodd; clip-rule:evenodd"
viewBox="0 0 120 120"
 xmlns:xlink="http://www.w3.org/1999/xlink"
 xmlns:xodm="http://www.corel.com/coreldraw/odm/2003">
 <defs>
  <style type="text/css">
   <![CDATA[
    .fil1 {fill:none}
    .fil0 {fill:#d6ba8b;fill-rule:nonzero}
   ]]>
  </style>
 </defs>
 <g id="Layer_x0020_1">
  <metadata id="CorelCorpID_0Corel-Layer"/>
  <path class="fil0" d="M116.14 89.31c0.02,-0.09 0.03,-0.18 0.04,-0.26 0.25,-2.2 -0.08,-3.35 -0.94,-3.91 -1.15,-0.75 -3.31,-0.97 -6.24,-1.13 -3.94,-0.22 -7.54,-0.78 -10.79,-1.62 -0.94,-0.24 -1.86,-0.51 -2.74,-0.8 3.59,3.78 8.58,6.34 15.53,6.6 2,0.08 3.74,0.39 5.14,1.12zm-62.39 -82.94c-0.02,0.05 -6.24,15.95 -13.62,25.74 -1.51,2 -2.99,3.83 -4.36,5.53 -5.44,6.73 -9.22,11.4 -8.1,19.32 0.91,6.4 6.75,8.62 12.55,10.83 2.42,0.93 4.84,1.85 7.05,3.09 2.48,-2.06 4.97,-4.06 7.35,-5.75 1.77,-1.25 3.96,-1.71 6.12,-1.31 2.14,0.39 4.24,1.62 5.8,3.72l0.08 0.1c1.55,2.13 2.2,4.35 2.18,6.38 -0.04,2.4 -1.02,4.53 -2.59,6.01l-4.83 4.27c2.17,2.66 3.92,5.11 5.49,7.31 6.03,8.45 9.25,12.94 25.56,10.87 1.69,-0.22 4.57,0.21 7.42,0.63 2.18,0.33 4.34,0.65 5.69,0.65 3.3,0 5.61,-0.76 7.19,-1.83 2.04,-1.4 2.86,-3.33 3.02,-4.74 0.25,-2.2 -0.06,-3.5 -0.79,-4.18 -0.79,-0.74 -2.23,-1.02 -4.1,-1.09 -26.6,-1.01 -28.05,-29.82 -28.71,-42.92 -0.06,-1.21 -0.12,-2.27 -0.2,-3.3 -0.93,-11.63 2.42,-25.23 2.43,-25.27l3.62 0.87c-0.01,0.04 -3.2,13.05 -2.32,24.11 0.06,0.83 0.12,2.04 0.19,3.41 0.29,5.68 0.74,14.58 3.57,22.48 1.93,0.83 4.06,1.53 6.4,2.07 2.66,0.62 5.59,1.04 8.79,1.21 3.32,0.18 5.87,0.48 7.71,1.51 1.83,1.03 2.87,2.58 3.06,5.06 0.69,0.22 1.31,0.5 1.87,0.86 2.16,1.4 3.06,3.63 2.62,7.46 -0.08,0.64 -0.25,1.33 -0.53,2.04 -0.12,0.29 -0.25,0.58 -0.41,0.87 0.56,1.34 0.75,3.05 0.51,5.22 -0.26,2.24 -1.51,5.28 -4.63,7.41 -2.14,1.46 -5.15,2.49 -9.29,2.49 -1.59,0 -3.9,-0.35 -6.23,-0.69 -2.62,-0.39 -5.26,-0.78 -6.41,-0.64 -18.52,2.36 -22.19,-2.77 -29.06,-12.4 -1.51,-2.11 -3.19,-4.46 -5.26,-7l-13.34 11.78 -9.74 9.26c-7.92,6.97 -12.88,7.03 -17.81,7.09 -0.69,0 -1.38,0.01 -2.13,0.05l-13.9 0.01 0 -3.75 13.82 0c0.69,-0.02 1.42,-0.03 2.16,-0.04 4.25,-0.05 8.52,-0.1 15.41,-6.17 9.81,-9.81 20.8,-18.19 30.61,-27.69 0.86,-0.81 1.39,-1.99 1.41,-3.34 0.02,-1.26 -0.42,-2.69 -1.47,-4.13l-0.05 -0.07c-0.97,-1.3 -2.23,-2.05 -3.48,-2.28 -1.17,-0.22 -2.34,0.01 -3.27,0.67 -6.06,4.97 -12.2,9.88 -18.29,14.82 -0.28,0.24 -0.63,0.4 -1.03,0.44 -1.02,0.11 -1.94,-0.64 -2.04,-1.66l-0.94 -8.91c-0.05,-0.51 0.11,-1.04 0.48,-1.45l1.11 -1.21c-4.83,-1.95 -9.28,-4.33 -11.24,-9.33l-17.5 23.03c-0.27,0.35 -0.65,0.58 -1.05,0.68l-5.44 1.3 -0.86 -3.62 4.79 -1.15 19.03 -25.04c-0.76,-8.63 3.31,-13.67 9.04,-20.76 1.34,-1.65 2.77,-3.43 4.29,-5.44 7.09,-9.41 13.11,-24.77 13.12,-24.82l3.48 1.33zm-9.58 67.1c-1.36,-0.66 -2.85,-1.25 -4.36,-1.83l-1.51 1.65 0.49 4.67c1.73,-1.41 3.54,-2.94 5.38,-4.49zm48.09 2.81c2.04,1 4.34,1.84 6.88,2.5 3.01,0.78 6.36,1.3 10.05,1.5 0.8,0.04 1.55,0.09 2.26,0.16 -0.2,-0.5 -0.51,-0.85 -0.94,-1.09 -1.2,-0.67 -3.29,-0.89 -6.08,-1.04 -3.45,-0.19 -6.59,-0.63 -9.44,-1.3 -0.94,-0.22 -1.85,-0.46 -2.73,-0.73z"/>
  <rect class="fil1" width="120" height="120"/>
 </g>
</svg>
