<?xml version="1.0" encoding="UTF-8"?>
<!DOCTYPE svg PUBLIC "-//W3C//DTD SVG 1.0//EN" "http://www.w3.org/TR/2001/REC-SVG-20010904/DTD/svg10.dtd">
<!-- Creator: CorelDRAW 2020 (64-Bit) -->
<svg xmlns="http://www.w3.org/2000/svg" xml:space="preserve" width="120px" height="120px" version="1.0" style="shape-rendering:geometricPrecision; text-rendering:geometricPrecision; image-rendering:optimizeQuality; fill-rule:evenodd; clip-rule:evenodd"
viewBox="0 0 21.62 21.62"
 xmlns:xlink="http://www.w3.org/1999/xlink"
 xmlns:xodm="http://www.corel.com/coreldraw/odm/2003">
 <defs>
  <style type="text/css">
   <![CDATA[
    .fil0 {fill:none}
    .fil1 {fill:#d6ba8b;fill-rule:nonzero}
   ]]>
  </style>
 </defs>
 <g id="Layer_x0020_1">
  <metadata id="CorelCorpID_0Corel-Layer"/>
  <rect class="fil0" width="21.62" height="21.62"/>
  <path class="fil1" d="M8.59 13.14l-0.65 1.72c-0.04,0.11 -0.13,0.18 -0.23,0.2l-3.65 0.67c-0.08,0.04 -0.36,0.18 -0.31,0.61l0 0.01c0.03,0.25 0.13,0.39 0.22,0.47l0.01 0.01c0.08,0.05 0.15,0.07 0.2,0.08l4.87 -0.47c0.05,0 0.11,-0.03 0.17,-0.06 0.05,-0.04 0.1,-0.09 0.12,-0.14l0.74 -1.35 -1.49 -1.75zm-1.16 1.35l0.74 -1.99c-0.13,-0.4 -0.1,-0.81 0,-1.19 0.1,-0.39 0.26,-0.73 0.38,-0.97l0.02 -0.04 1.6 -2.47 -1.24 -0.22 -1.83 2.19c-0.09,0.1 -0.32,0.3 -0.67,0.31 -0.2,0.01 -0.43,-0.04 -0.69,-0.22 -0.77,-0.53 -0.51,-1.23 -0.45,-1.37 0.01,-0.02 0.02,-0.04 0.03,-0.06l1.84 -2.7c0.11,-0.14 0.21,-0.29 0.35,-0.41 0.17,-0.13 0.36,-0.23 0.6,-0.25l0.01 0c0.01,0 3.44,-0.16 4.6,-0.22 0.56,-0.03 1.12,0.22 1.56,0.59 0.49,0.41 0.85,0.97 0.91,1.48 0.1,0.69 0.21,2.24 0.24,2.73l2.74 1.82c0.02,0.02 0.05,0.04 0.07,0.06 0,0 0.48,0.6 0.09,1.28 -0.1,0.18 -0.3,0.4 -0.55,0.52 -0.21,0.1 -0.45,0.14 -0.7,0.04 -0.01,-0.01 -2.78,-1.19 -3.8,-1.71 -0.11,-0.06 -0.19,-0.14 -0.26,-0.24l-0.02 -0.03c-0.07,-0.11 -0.12,-0.25 -0.14,-0.36l-0.03 -0.17 -0.85 1.17 1.75 2.18c0.11,0.12 0.19,0.28 0.22,0.44 0.04,0.17 0.04,0.35 -0.01,0.51l-1.38 4.89c-0.07,0.24 -0.28,0.45 -0.58,0.56 -0.23,0.08 -0.52,0.11 -0.84,0.03 -1,-0.25 -0.94,-1.1 -0.94,-1.1l0 -0.06 0.7 -3.64 -0.4 -0.48 -0.6 1.1c-0.07,0.15 -0.19,0.29 -0.33,0.38 -0.15,0.1 -0.32,0.17 -0.48,0.18l-4.87 0.47c-0.03,0 -0.05,0 -0.08,0 -0.1,-0.01 -0.32,-0.06 -0.52,-0.21l-0.02 -0.01c-0.21,-0.16 -0.4,-0.43 -0.45,-0.87l0 -0.01c-0.12,-0.96 0.62,-1.23 0.73,-1.27l0.06 -0.01 3.49 -0.65zm2.08 5.08l-4.01 0 0 -0.61 4.01 0 0 0.61zm5.32 -9.7c0,-0.01 -0.13,-2.05 -0.24,-2.84 -0.05,-0.36 -0.32,-0.78 -0.7,-1.09 -0.33,-0.28 -0.74,-0.47 -1.14,-0.45 -1.11,0.06 -4.4,0.21 -4.59,0.22 -0.1,0.01 -0.18,0.05 -0.25,0.11 -0.09,0.07 -0.17,0.18 -0.25,0.29l-1.82 2.67c-0.03,0.07 -0.11,0.36 0.25,0.61 0.13,0.09 0.24,0.12 0.32,0.12 0.12,-0.01 0.19,-0.07 0.22,-0.1l1.94 -2.33c0.08,-0.08 0.19,-0.12 0.29,-0.1l1.87 0.33c0.17,0.03 0.28,0.18 0.25,0.35 -0.01,0.05 -0.03,0.09 -0.06,0.13l-1.82 2.83c-0.11,0.21 -0.26,0.52 -0.34,0.84 -0.08,0.3 -0.11,0.63 0.02,0.91l0.04 0.08 0.03 0.06 2.61 3.07c0.07,0.08 0.09,0.17 0.07,0.26l-0.72 3.76c0,0.08 0.05,0.37 0.48,0.48 0.19,0.04 0.36,0.03 0.49,-0.01 0.1,-0.04 0.17,-0.1 0.19,-0.16l1.39 -4.91c0.02,-0.05 0.02,-0.11 0,-0.18 -0.02,-0.07 -0.04,-0.13 -0.08,-0.17l-1.92 -2.39c-0.09,-0.11 -0.09,-0.27 -0.01,-0.38l1.42 -1.94c0.1,-0.14 0.29,-0.17 0.43,-0.07 0.07,0.05 0.11,0.13 0.12,0.22l0.14 0.85c0.01,0.05 0.03,0.11 0.06,0.16l0.01 0.01c0.01,0.02 0.02,0.03 0.03,0.04 1,0.51 3.69,1.66 3.75,1.68 0.06,0.03 0.14,0.02 0.2,-0.02 0.13,-0.06 0.24,-0.18 0.29,-0.28 0.15,-0.25 0.04,-0.47 -0.01,-0.55l-2.82 -1.88c-0.08,-0.05 -0.13,-0.14 -0.14,-0.23zm3.04 -6.53c0,-0.51 -0.2,-0.96 -0.53,-1.29l-0.01 -0.02c-0.33,-0.32 -0.78,-0.52 -1.28,-0.52 -0.51,0 -0.96,0.21 -1.29,0.54l-0.02 0.01c-0.32,0.33 -0.52,0.78 -0.52,1.28 0,0.5 0.21,0.96 0.54,1.29 0.33,0.33 0.78,0.53 1.29,0.53 0.5,0 0.96,-0.2 1.29,-0.53 0.33,-0.33 0.53,-0.79 0.53,-1.29zm-0.1 -1.73c0.44,0.45 0.71,1.05 0.71,1.73 0,0.67 -0.27,1.28 -0.71,1.72 -0.44,0.44 -1.05,0.71 -1.72,0.71 -0.67,0 -1.28,-0.27 -1.72,-0.71 -0.45,-0.44 -0.72,-1.05 -0.72,-1.72 0,-0.67 0.27,-1.27 0.7,-1.71l0.02 -0.02c0.44,-0.44 1.05,-0.71 1.72,-0.71 0.66,0 1.26,0.27 1.7,0.7l0.02 0.01z"/>
 </g>
</svg>
