<?xml version="1.0" encoding="UTF-8"?>
<!DOCTYPE svg PUBLIC "-//W3C//DTD SVG 1.0//EN" "http://www.w3.org/TR/2001/REC-SVG-20010904/DTD/svg10.dtd">
<!-- Creator: CorelDRAW 2020 (64-Bit) -->
<svg xmlns="http://www.w3.org/2000/svg" xml:space="preserve" width="120px" height="120px" version="1.0" style="shape-rendering:geometricPrecision; text-rendering:geometricPrecision; image-rendering:optimizeQuality; fill-rule:evenodd; clip-rule:evenodd"
viewBox="0 0 120 120"
 xmlns:xlink="http://www.w3.org/1999/xlink"
 xmlns:xodm="http://www.corel.com/coreldraw/odm/2003">
 <defs>
  <style type="text/css">
   <![CDATA[
    .fil1 {fill:none}
    .fil0 {fill:#d6ba8b;fill-rule:nonzero}
   ]]>
  </style>
 </defs>
 <g id="Layer_x0020_1">
  <metadata id="CorelCorpID_0Corel-Layer"/>
  <path class="fil0" d="M82.08 54.78l9.14 8.88 0.94 -15.12c0.04,-0.77 0.53,-1.4 1.2,-1.67l12.23 -5.73 -10.85 -8.47c-0.72,-0.56 -0.93,-1.53 -0.55,-2.33l7.67 -16.25 -17.2 4.66c-0.91,0.24 -1.85,-0.21 -2.24,-1.04l-6.78 -11.79 -6.65 12.76c-0.4,0.76 -1.23,1.15 -2.03,1.01l-15.19 -2.32 3.76 9.05c6.4,1.56 12.34,4.77 17.03,9.54 4.69,4.76 8.12,11.07 9.52,18.82zm-51.54 52.3c-1.05,0.13 -2.01,-0.61 -2.14,-1.67 -0.14,-1.05 0.61,-2.01 1.66,-2.14 6.66,-0.84 11.61,-1.27 16.51,-1.27 4.9,0 9.84,0.43 16.49,1.27 1.05,0.13 1.8,1.09 1.66,2.14 -0.13,1.06 -1.09,1.8 -2.14,1.67 -6.4,-0.81 -11.19,-1.22 -16.01,-1.22 -4.82,0 -9.61,0.41 -16.03,1.22zm-6.87 -60.17l0.09 13.84c0.04,6.08 2.41,11.47 6.22,15.35 3.83,3.89 9.13,6.26 15,6.26 5.86,0 11.16,-2.37 14.99,-6.26 3.81,-3.88 6.18,-9.27 6.22,-15.35l0.09 -13.79c-6.02,-3.85 -13.86,-5.73 -21.6,-5.73 -7.82,0 -15.49,1.92 -21.01,5.68zm-3.74 13.85l-0.1 -14.77c-0.02,-0.61 0.25,-1.21 0.78,-1.61 6.22,-4.63 15.09,-6.99 24.07,-6.99 8.84,0 17.85,2.29 24.61,6.96 0.5,0.35 0.83,0.93 0.83,1.59l-0.09 14.82c-0.05,7.13 -2.84,13.47 -7.32,18.03 -4.54,4.62 -10.81,7.43 -17.73,7.43 -6.93,0 -13.2,-2.81 -17.74,-7.43 -4.48,-4.56 -7.27,-10.89 -7.31,-18.03zm31.09 -35.16l-4.08 -9.84c-0.15,-0.33 -0.21,-0.71 -0.16,-1.09 0.16,-1.05 1.14,-1.78 2.19,-1.62l17.24 2.63 7.63 -14.65c0.17,-0.31 0.42,-0.59 0.75,-0.77 0.92,-0.53 2.09,-0.22 2.62,0.7l7.87 13.69 19.8 -5.37c0.43,-0.11 0.89,-0.08 1.32,0.12 0.96,0.45 1.37,1.6 0.92,2.56l-8.81 18.64 12.1 9.43c0.23,0.18 0.43,0.42 0.57,0.71 0.45,0.96 0.03,2.1 -0.93,2.55l-14.13 6.61 -1.12 18.16c-0.03,0.45 -0.21,0.88 -0.55,1.23 -0.74,0.76 -1.95,0.77 -2.71,0.04l-8.82 -8.56c0.14,3.26 -0.06,6.74 -0.65,10.44 -1.51,9.63 -2.47,17.73 -3.06,25.49 -0.58,7.7 -0.78,15.07 -0.78,23.3l-3.85 0c0,-8.28 0.2,-15.73 0.79,-23.58 0.59,-7.79 1.57,-15.99 3.11,-25.8 0.65,-4.14 0.79,-8 0.48,-11.58 -0.74,-8.62 -4.09,-15.45 -8.94,-20.39 -4.85,-4.94 -11.23,-8 -18.02,-9.07 -2.78,-0.44 -5.65,-0.54 -8.53,-0.29 -29.76,2.57 -31.6,23.52 -30.25,39.15 0.26,3.04 0.61,5.73 0.93,8.11l0.36 2.78c0.24,1.97 0.74,4.26 1.35,6.99 1.62,7.35 3.94,17.81 3.94,33.4l-3.86 0c0,-15.25 -2.25,-25.42 -3.83,-32.57 -0.64,-2.9 -1.18,-5.33 -1.43,-7.37l-0.34 -2.74c-0.33,-2.52 -0.71,-5.38 -0.96,-8.27 -1.49,-17.28 0.58,-40.45 33.76,-43.31 2.7,-0.24 5.41,-0.19 8.08,0.14z"/>
  <rect class="fil1" width="120" height="120"/>
 </g>
</svg>
