<?xml version="1.0" encoding="UTF-8"?>
<!DOCTYPE svg PUBLIC "-//W3C//DTD SVG 1.0//EN" "http://www.w3.org/TR/2001/REC-SVG-20010904/DTD/svg10.dtd">
<!-- Creator: CorelDRAW 2020 (64-Bit) -->
<svg xmlns="http://www.w3.org/2000/svg" xml:space="preserve" width="120px" height="120px" version="1.0" style="shape-rendering:geometricPrecision; text-rendering:geometricPrecision; image-rendering:optimizeQuality; fill-rule:evenodd; clip-rule:evenodd"
viewBox="0 0 120 120"
 xmlns:xlink="http://www.w3.org/1999/xlink"
 xmlns:xodm="http://www.corel.com/coreldraw/odm/2003">
 <defs>
  <style type="text/css">
   <![CDATA[
    .fil0 {fill:none}
    .fil1 {fill:#d6ba8b;fill-rule:nonzero}
   ]]>
  </style>
 </defs>
 <g id="Layer_x0020_1">
  <metadata id="CorelCorpID_0Corel-Layer"/>
  <rect class="fil0" width="120" height="120"/>
  <g id="_1697733833344">
   <g id="__x0023_05090dff">
    <g>
     <path class="fil1" d="M55.91 13.05c1.15,0.62 3.92,0.75 2.65,2.7 -4.22,9.82 -9.01,19.63 -16.3,27.57 -3.45,3.62 -6.37,7.93 -7.53,12.84 -0.57,4.58 1.12,9.81 5.54,11.9 5.69,2.71 12.39,3.75 17.01,8.42 7.29,6.22 12.34,14.42 18.34,21.77 4.34,5.07 11.54,4.79 17.59,4.27 5.73,-0.84 11.37,1.98 17.06,0.58 3.54,-0.89 6.67,-4.7 5.37,-8.43 -0.83,-2 -3.35,-1.66 -5.11,-1.96 -7.85,-0.46 -15.59,-4.78 -19.36,-11.81 -5.53,-9.4 -5.52,-20.69 -5.97,-31.25 -1.25,-7.44 0.45,-14.94 1.73,-22.25 1.12,0.15 2.25,0.31 3.38,0.49 -1.19,7.12 -2.49,14.3 -2.21,21.54 0.98,8.18 0.29,16.73 3.71,24.42 5.83,2.57 12.24,2.73 18.46,3.45 4.01,0.31 4.7,4.91 7.54,6.96 2.77,2.13 1.59,6.02 1.34,8.99 0.17,3.04 0.49,6.42 -1.61,8.92 -3.58,5.14 -10.61,5.34 -16.18,4.25 -7.58,-1.63 -15.71,1.52 -22.97,-1.87 -6.67,-3.21 -9.72,-10.37 -14.34,-15.71 -4.42,-5.35 -9.06,-11.35 -15.84,-13.71 -0.72,4.83 -0.96,9.72 -0.97,14.61 -0.54,0.03 -1.62,0.1 -2.15,0.13 -4.46,-3.68 -7.95,-8.4 -12.79,-11.63 -1.89,0.38 -4.03,1.92 -5.79,0.45 -0.18,0.42 -0.53,1.25 -0.71,1.67 -2.75,0.72 -5.42,1.72 -8.21,2.33 -1.51,-5.29 0.75,-10.74 1.61,-15.97 -4.72,-2.28 -9.78,-3.72 -14.55,-5.86 -1.6,-0.77 -5.05,-1.07 -4.1,-3.63 5.33,-3.55 11.36,-5.91 17.05,-8.83 -0.39,-5.5 -2.61,-10.71 -2.63,-16.26 5.59,0.11 10.6,3.52 16.08,4.38 4.2,-3.67 6.61,-9.45 11.15,-12.83 2.95,1.16 2.93,5.2 4.54,7.6 3.74,-5.72 6.48,-11.99 9.17,-18.24l0 0zm-23.84 27.61c-4.64,-0.85 -8.77,-3.35 -13.32,-4.48 0.87,4.49 2.23,8.88 2.89,13.42 -5.08,2.55 -9.99,5.45 -14.93,8.29 5.11,2.69 11.11,3.8 15.72,7.34 -0.36,4.52 -0.83,9.29 -2.52,13.55 4.34,-1.5 8.57,-3.43 13.09,-4.28 2.21,0.71 3.71,2.93 5.46,4.43 1.87,1.53 3.1,4.36 5.81,4.39 0.03,-3.25 0.25,-6.49 0.47,-9.72 -3.91,-1.51 -8.06,-3.17 -10.71,-6.58 -2.62,-3.75 -3.15,-8.71 -2.03,-13.08 2.68,-7.08 7.78,-12.87 12.38,-18.76 -0.85,-1.93 -1.6,-3.9 -2.3,-5.89 -3.73,3.41 -6.38,7.84 -10.01,11.37l0 0zm67.3 39.39c3.95,2.15 8.71,1.81 13.07,2.01 -3.93,-2.34 -8.66,-2.09 -13.07,-2.01l0 0zm-1.55 3.47c4.32,5.83 12.08,5.51 18.54,6.22 0.6,-3.47 -3.29,-4.18 -5.87,-4.26 -4.3,-0.11 -8.53,-0.82 -12.67,-1.96z"/>
    </g>
   </g>
  </g>
 </g>
</svg>
