<?xml version="1.0" encoding="UTF-8"?>
<!DOCTYPE svg PUBLIC "-//W3C//DTD SVG 1.0//EN" "http://www.w3.org/TR/2001/REC-SVG-20010904/DTD/svg10.dtd">
<!-- Creator: CorelDRAW 2020 (64-Bit) -->
<svg xmlns="http://www.w3.org/2000/svg" xml:space="preserve" width="120px" height="120px" version="1.0" style="shape-rendering:geometricPrecision; text-rendering:geometricPrecision; image-rendering:optimizeQuality; fill-rule:evenodd; clip-rule:evenodd"
viewBox="0 0 120 120"
 xmlns:xlink="http://www.w3.org/1999/xlink"
 xmlns:xodm="http://www.corel.com/coreldraw/odm/2003">
 <defs>
  <style type="text/css">
   <![CDATA[
    .fil1 {fill:none}
    .fil0 {fill:#d6ba8b;fill-rule:nonzero}
   ]]>
  </style>
 </defs>
 <g id="Layer_x0020_1">
  <metadata id="CorelCorpID_0Corel-Layer"/>
  <g id="_1697643106032">
   <g>
    <g id="__x0023_121f27ff">
     <g>
      <path class="fil0" d="M32.09 11.86c0.73,-6.23 6.25,-11.97 12.76,-11.62 3.21,-0.31 5.81,1.7 8.38,3.25 2.61,0.13 5.22,-1 7.83,-0.31 2.71,0.46 4.47,3.52 7.46,2.67 3.97,-0.85 7.19,2.18 8.69,5.55 2.16,0.29 4.61,0.37 6.29,1.98 1.83,1.6 2.09,4.15 2.55,6.38 3.44,1.52 6.33,4.48 6.34,8.46 0.13,7.82 -1.3,15.62 -2.77,23.28 4.7,0.5 9.41,0.97 14.15,0.83 -0.01,0.97 -0.01,1.94 -0.01,2.91 -5.11,0.2 -10.23,0.12 -15.34,0.07 -0.02,3.19 -0.61,6.32 -1.09,9.46 -0.68,11.59 -2.31,23.11 -2.3,34.74 5.05,0.04 10.08,0 15.13,0.09 0,1.05 0,2.09 0,3.14 -5.31,0.19 -10.63,-0.2 -15.91,0.45 -2.51,8.65 -10.16,15.85 -19.34,16.47 -9.78,1.13 -19.94,-4.99 -23.11,-14.39 -1.93,-5.43 -0.82,-11.26 -1.01,-16.88 0.07,-7.88 -0.64,-15.79 -2.45,-23.47 -1.37,-6.36 -4.02,-12.36 -5.27,-18.74 -5.16,0.04 -10.32,0.08 -15.48,0.02 -1.97,0.3 -1.12,-2.37 -1.36,-3.47 5.67,-0.11 11.35,0.03 17.03,-0.11 0.25,-4.84 2.39,-9.5 1.6,-14.4 -0.49,-5.54 -4.02,-10.66 -2.77,-16.36l0 0zm9.52 -7.64c-4.44,1.7 -6.58,6.84 -6.26,11.33 0.74,4.62 2.98,8.94 3.01,13.7 0.44,4.55 -1.27,8.88 -1.62,13.37 1.38,0.02 2.76,0.04 4.14,0.05 1.47,-2.87 3.46,-6.1 6.91,-6.7 5.33,-1.5 11.21,3.18 10.86,8.72 0.11,5.19 -5.1,9.48 -10.16,8.54 -3.95,-0.4 -6.24,-3.92 -7.94,-7.09 -0.9,0.03 -2.71,0.09 -3.62,0.13 0.24,4.52 2.4,8.58 3.52,12.89 3.14,10.64 4.07,21.8 3.77,32.86 -0.01,4.36 -0.69,8.98 1.22,13.07 2.76,6.57 9.59,11.14 16.72,11.18 8.13,0.48 16.2,-5.23 18.27,-13.16 -2.41,-0.27 -4.84,-0.53 -7.24,-0.21 -2.21,0.41 -2.31,3.21 -3.79,4.57 -4.19,4.85 -13.13,3.02 -14.97,-3.18 -2.66,-5.93 3.11,-13.13 9.46,-12.05 4.15,0.15 6.85,3.8 8.25,7.34 3.08,-0.04 6.16,-0.02 9.24,-0.15 0.38,-8.24 1.01,-16.46 1.74,-24.68 0.85,-6.55 1.87,-13.08 2.44,-19.66 -2.01,0.11 -4.01,0.24 -6.01,0.31 -1.4,2.29 -2.95,5 -5.81,5.57 -4.5,1.47 -9.78,-2.38 -9.5,-7.18 -0.41,-5.22 5.78,-9.35 10.45,-7.04 2.41,0.82 3.25,3.49 5.09,4.98 2.05,0.59 4.19,0.57 6.3,0.76 1.63,-7.35 2.58,-14.91 2.86,-22.45 0.24,-2.84 -0.93,-6.46 -4.3,-6.47 -0.28,3.33 -0.77,6.66 -1.06,9.99 -0.96,-0.01 -1.93,-0.02 -2.9,-0.03 -0.74,-5.14 0.89,-10.11 1.41,-15.15 0.32,-2.72 -2.68,-3.21 -4.68,-3.55 -1.1,4.47 -1.93,9 -2.16,13.61 1.57,1.02 5.62,3.15 2.49,4.85 -4.08,-0.96 -8,-2.68 -12.24,-2.87 -5,-0.57 -9.99,0.35 -14.99,0.27 0.68,-4.24 2.68,-8.19 2.94,-12.51 0.5,-4.34 0.08,-9.36 -3.4,-12.44 -2.13,-2.28 -5.63,-2.23 -8.44,-1.52l0 0zm14.13 2.44c0.39,2.66 1.33,5.22 1.37,7.92 0.14,4.23 -0.96,8.35 -1.94,12.43 2.46,-0.17 4.92,-0.27 7.39,-0.28 -0.25,-5.61 1.58,-11.04 1.66,-16.6 -1.14,-3.73 -5.26,-3.96 -8.48,-3.47l0 0zm12.21 2.42c-0.37,5.98 -2.03,11.82 -1.85,17.85 1.83,0.26 3.65,0.62 5.48,1 0.48,-5.01 1.92,-9.91 2.15,-14.92 -0.05,-3.08 -3.25,-3.99 -5.78,-3.93l0 0zm-20 30.46c-3.9,1.28 -4.67,7.29 -1.08,9.42 3.79,2.85 9.71,-1.49 8.07,-5.95 -0.77,-3.06 -4.15,-4.38 -6.99,-3.47l0 0zm21.77 10.63c-2.72,1.33 -2.74,5.86 0.07,7.09 2.38,1.56 6.23,-0.56 5.88,-3.5 0.42,-3.09 -3.44,-5.21 -5.95,-3.59l0 0zm-8.18 45.7c-5.06,0.63 -5.7,8.78 -0.93,10.39 3.45,1.76 8.07,-1.21 7.74,-5.11 0.19,-3.51 -3.46,-6.27 -6.81,-5.28z"/>
     </g>
    </g>
   </g>
   <rect class="fil1" width="120" height="120"/>
  </g>
 </g>
</svg>
