<?xml version="1.0" encoding="UTF-8" standalone="no"?>
<svg
   width="100pt"
   height="100pt"
   viewBox="0 0 100 100"
   version="1.1"
   id="svg5"
   sodipodi:docname="ssb-04.svg"
   inkscape:version="1.4.3 (0d15f75, 2025-12-25)"
   xml:space="preserve"
   xmlns:inkscape="http://www.inkscape.org/namespaces/inkscape"
   xmlns:sodipodi="http://sodipodi.sourceforge.net/DTD/sodipodi-0.dtd"
   xmlns="http://www.w3.org/2000/svg"
   xmlns:svg="http://www.w3.org/2000/svg"><defs
     id="defs5" /><sodipodi:namedview
     id="namedview5"
     pagecolor="#505050"
     bordercolor="#ffffff"
     borderopacity="1"
     inkscape:showpageshadow="0"
     inkscape:pageopacity="0"
     inkscape:pagecheckerboard="1"
     inkscape:deskcolor="#505050"
     inkscape:document-units="pt"
     inkscape:zoom="2.3467106"
     inkscape:cx="22.584804"
     inkscape:cy="70.950375"
     inkscape:window-width="1920"
     inkscape:window-height="1129"
     inkscape:window-x="1912"
     inkscape:window-y="-7"
     inkscape:window-maximized="1"
     inkscape:current-layer="svg5" /><g
     id="#000000fd"
     transform="matrix(0.95756476,0,0,0.95756476,2.1259159,1.9446125)"><path
       fill="#000000"
       opacity="1"
       d="m 0.51,0.59 c 0.77,0 2.3,-0.01 3.07,-0.01 0.21,10.14 0.19,20.36 1.65,30.42 2.47,10.49 5.8,21.22 4.13,32.12 -0.85,4.9 -1.42,10 -3.74,14.49 -1.83,3.39 -2.67,7.53 -1.48,11.27 1.45,3.31 5.67,3.47 8.77,3.73 17.08,0.27 34.08,2.07 51.1,3.42 8.29,0.79 16.79,0.97 24.92,-1.05 3.1,-0.87 6.97,-2.33 7.52,-5.97 -0.45,-2.45 -3.37,-2.7 -5.36,-3 C 87.16,85.57 81.87,85.18 79.91,89.49 79.19,89.11 77.76,88.37 77.04,88 78.01,86.62 79.01,85.26 80.05,83.94 72.73,81.33 65.85,77.66 59.06,73.93 50.49,69.21 43.18,62.64 35.39,56.8 c 0.45,-0.66 1.34,-1.97 1.79,-2.62 0.59,0.41 1.78,1.24 2.38,1.66 -5.13,-18.08 -0.55,-36.86 -0.35,-55.22 0.8,-0.01 2.41,-0.02 3.22,-0.03 -0.14,15.46 -3.38,30.92 -1.44,46.37 1.13,5.17 1.36,11.57 6.15,14.86 10.35,8.27 22.23,14.5 34.53,19.3 4.98,2.36 10.98,0.51 15.7,3.5 3.7,2.58 2.33,8.44 -1.15,10.6 C 90.02,99.32 82.2,99.56 75,99.79 62.99,99.63 51.05,97.99 39.06,97.23 29.39,96.16 19.64,96.36 9.95,95.57 6.05,95.26 1.63,93.22 0.76,89.02 0.1,85.05 0.32,80.76 2.22,77.14 5.05,71.85 5.68,65.75 6.46,59.9 7.61,47.54 1.67,36.04 1.19,23.83 0.54,16.1 0.43,8.34 0.51,0.59 Z"
       id="path1" /><path
       fill="#000000"
       opacity="1"
       d="m 46.62,32.61 c 3.65,-2.46 7.42,-4.74 11.1,-7.16 0.65,0.88 1.31,1.77 1.96,2.66 -2.18,1.41 -4.37,2.79 -6.58,4.14 1.83,0.94 3.65,1.9 5.48,2.85 -3.77,2.41 -7.55,4.8 -11.33,7.19 -0.43,-0.69 -1.29,-2.07 -1.72,-2.77 2.14,-1.36 4.27,-2.73 6.41,-4.11 -1.78,-0.92 -3.55,-1.87 -5.32,-2.8 z"
       id="path2" /><path
       fill="#000000"
       opacity="1"
       d="m 56.03,41.92 c 4.42,0.76 8.86,1.44 13.28,2.24 -0.25,1.06 -0.49,2.12 -0.72,3.18 -2.46,-0.45 -4.92,-0.87 -7.39,-1.24 0.76,1.9 1.51,3.8 2.28,5.7 -4.43,-0.72 -8.86,-1.39 -13.26,-2.21 0.13,-0.79 0.39,-2.38 0.52,-3.17 2.51,0.41 5.02,0.84 7.53,1.25 -0.75,-1.91 -1.5,-3.84 -2.24,-5.75 z"
       id="path3" /><path
       fill="#000000"
       opacity="1"
       d="M 13.19,74.86 C 9.5,65.98 17.05,55.04 26.74,55.68 c -0.03,0.84 -0.09,2.51 -0.12,3.34 -7.7,-0.6 -13.63,8.59 -10.09,15.39 2.73,6.78 12,8.8 17.54,4.17 0.46,0.68 1.36,2.04 1.81,2.72 -7.38,6.07 -19.7,2.67 -22.69,-6.44 z"
       id="path4" /><path
       fill="#000000"
       opacity="1"
       d="m 63.78,55.54 c 3.36,3.03 6.62,6.17 9.9,9.28 -0.79,0.78 -1.57,1.57 -2.35,2.36 -1.84,-1.77 -3.69,-3.54 -5.52,-5.33 -0.45,2.03 -0.9,4.06 -1.34,6.09 -3.2,-3.17 -6.52,-6.2 -9.75,-9.33 0.75,-0.82 1.49,-1.65 2.23,-2.48 1.82,1.82 3.7,3.59 5.59,5.34 0.41,-1.98 0.82,-3.95 1.24,-5.93 z"
       id="path5" /></g></svg>
