<?xml version="1.0" encoding="UTF-8" standalone="no"?>
<svg
   width="100pt"
   height="100pt"
   viewBox="0 0 100 100"
   version="1.1"
   id="svg5"
   sodipodi:docname="ssb-05.svg"
   inkscape:version="1.4.3 (0d15f75, 2025-12-25)"
   xml:space="preserve"
   xmlns:inkscape="http://www.inkscape.org/namespaces/inkscape"
   xmlns:sodipodi="http://sodipodi.sourceforge.net/DTD/sodipodi-0.dtd"
   xmlns="http://www.w3.org/2000/svg"
   xmlns:svg="http://www.w3.org/2000/svg"><defs
     id="defs5" /><sodipodi:namedview
     id="namedview5"
     pagecolor="#505050"
     bordercolor="#ffffff"
     borderopacity="1"
     inkscape:showpageshadow="0"
     inkscape:pageopacity="0"
     inkscape:pagecheckerboard="1"
     inkscape:deskcolor="#505050"
     inkscape:document-units="pt"
     inkscape:zoom="2.3467106"
     inkscape:cx="22.584804"
     inkscape:cy="70.950375"
     inkscape:window-width="1920"
     inkscape:window-height="1129"
     inkscape:window-x="1912"
     inkscape:window-y="-7"
     inkscape:window-maximized="1"
     inkscape:current-layer="svg5" /><g
     id="g5"
     transform="matrix(1.0073235,0,0,1.0073235,-6.1246655,-3.0611051)"><g
       id="#ffffffff" /><g
       id="#0b0b0bff"><path
         fill="#0b0b0b"
         opacity="1"
         d="M 30.48,11.52 C 41.36,3.18 58,3.63 68.61,12.28 c 4.54,3.55 7.89,8.46 9.98,13.8 4.16,10.43 7.05,21.62 6.42,32.92 -0.51,11.64 -5.8,22.38 -6.83,33.94 -0.23,1.99 0.09,3.97 0.55,5.91 -0.71,0.24 -2.14,0.74 -2.85,0.98 -1.69,-5.85 -0.08,-11.91 1.2,-17.67 1.49,-6.72 3.99,-13.24 4.64,-20.13 1.12,-9.31 -0.5,-18.75 -3.3,-27.63 -1.99,-5.9 -4.03,-12.04 -8.41,-16.65 -3.23,2.69 -3.77,7.28 -3.93,11.22 -0.17,5.29 3.01,9.75 6.41,13.47 -0.79,0.63 -1.58,1.28 -2.36,1.93 -0.66,-0.85 -1.31,-1.7 -1.97,-2.54 C 65,47.81 58.59,51.4 52.01,52.18 45.87,52.88 39.14,52.68 33.79,49.24 30.02,46.87 27.66,42.49 27.84,38.03 27.9,32.07 27.71,26.11 27.97,20.15 40.06,17.06 52.81,16.3 65.08,18.75 66,17.65 66.93,16.56 67.87,15.48 57.37,6.12 39.24,5.94 29.53,16.51 23.2,23.38 21.74,33.1 20.98,42.06 c -0.58,9.33 -0.65,18.8 1.1,28.02 1.13,6.19 4.02,11.9 5.16,18.09 0.66,3.67 0.77,7.42 0.93,11.14 -1,0.04 -2,0.09 -2.99,0.14 C 25.07,93.23 24.43,86.96 22.15,81.13 17.13,68.07 17.11,53.77 18.16,40.02 19.01,29.59 21.82,18.26 30.48,11.52 m 0.32,11.14 c 0.37,6.42 -0.57,12.92 0.59,19.27 10.77,-3.6 22.64,-3.47 33.49,-0.28 0.26,-0.62 0.79,-1.86 1.05,-2.48 C 62.78,33.84 62.49,27.44 63.99,21.54 53,19.63 41.61,19.87 30.8,22.66 m 2.04,21.99 c 2.29,2.11 5.04,3.74 8.13,4.3 7.44,1.36 15.91,0.54 21.75,-4.71 -9.68,-2.78 -20.3,-2.74 -29.88,0.41 z"
         id="path1" /><path
         fill="#0b0b0b"
         opacity="1"
         d="m 82.11,14.06 c 0.38,-0.67 1.15,-2.02 1.53,-2.69 3.12,1.75 6.23,3.84 7.98,7.07 3.04,5.01 2.82,11.49 0.05,16.57 -0.9,-0.36 -1.81,-0.74 -2.7,-1.13 1.91,-3.9 2.68,-8.62 0.71,-12.66 -1.4,-3.35 -4.39,-5.62 -7.57,-7.16 z"
         id="path2" /><path
         fill="#0b0b0b"
         opacity="1"
         d="m 79.53,19.23 c 0.36,-0.65 1.1,-1.94 1.47,-2.58 6.28,2.38 8.96,10.32 5.28,15.98 C 85.62,32.26 84.31,31.52 83.65,31.15 86.6,26.81 84.27,21 79.53,19.23 Z"
         id="path3" /><path
         fill="#0b0b0b"
         opacity="1"
         d="m 38.17,78.79 c 5.87,0.01 11.73,0 17.6,0.01 -0.01,0.75 -0.02,2.25 -0.02,3 -5.86,-0.02 -11.72,-0.02 -17.58,-0.01 0,-0.75 0,-2.25 0,-3 z"
         id="path4" /><path
         fill="#0b0b0b"
         opacity="1"
         d="m 35.22,90.63 c 0.01,-1.02 0.03,-2.04 0.04,-3.06 8.78,0.06 17.56,0.05 26.34,0.01 0,1.02 0,2.04 0,3.06 -8.79,-0.05 -17.59,-0.03 -26.38,-0.01 z"
         id="path5" /></g></g></svg>
