<?xml version="1.0" encoding="UTF-8" standalone="no"?>
<svg
   width="100pt"
   height="100pt"
   viewBox="0 0 100 100"
   version="1.1"
   id="svg5"
   sodipodi:docname="ssb-03.svg"
   inkscape:version="1.4.3 (0d15f75, 2025-12-25)"
   xmlns:inkscape="http://www.inkscape.org/namespaces/inkscape"
   xmlns:sodipodi="http://sodipodi.sourceforge.net/DTD/sodipodi-0.dtd"
   xmlns="http://www.w3.org/2000/svg"
   xmlns:svg="http://www.w3.org/2000/svg">
  <defs
     id="defs5" />
  <sodipodi:namedview
     id="namedview5"
     pagecolor="#505050"
     bordercolor="#ffffff"
     borderopacity="1"
     inkscape:showpageshadow="0"
     inkscape:pageopacity="0"
     inkscape:pagecheckerboard="1"
     inkscape:deskcolor="#505050"
     inkscape:document-units="pt"
     inkscape:zoom="2.3467106"
     inkscape:cx="22.584804"
     inkscape:cy="70.950375"
     inkscape:window-width="1920"
     inkscape:window-height="1129"
     inkscape:window-x="1912"
     inkscape:window-y="-7"
     inkscape:window-maximized="1"
     inkscape:current-layer="svg5" />
  <g
     id="#000000fc"
     transform="matrix(0.95,0,0,0.95,2.5072236,2.5)">
    <path
       fill="#000000"
       opacity="1"
       d="m 46.93,0 h 2.27 c 5.01,14.94 8.87,30.31 14.9,44.91 1.93,4.42 6,7.38 8.4,11.52 3.2,5.07 6.2,11.02 5,17.19 -1.02,4.65 -5.2,7.6 -9.19,9.64 -12.5,6.2 -26.61,8.47 -38.89,15.2 -2.11,1.27 -4.61,1.44 -7.02,1.54 H 13.54 C 10.42,99.51 6.64,99.1 4.79,96.17 3.37,93.35 4.51,89.73 6.92,87.81 10.98,84.38 16.58,84.11 21.63,83.62 26.84,74.45 33.12,65.9 40.36,58.23 41.52,57.37 40.28,56 39.99,55.02 31.47,39 23.46,22.69 16.45,5.94 16.88,5.33 17.74,4.11 18.17,3.5 c 1.38,0.68 2.66,1.61 3.12,3.16 7.08,17.08 15.64,33.48 24.07,49.91 1.33,1.87 -1.09,3.32 -2.1,4.66 -7.64,7.65 -13.54,16.8 -19.09,26.01 -5.61,1.32 -14.32,-0.13 -16.3,7.06 5.82,2.46 12.47,1.79 18.56,1.03 10.79,-5.79 22.76,-8.66 34.13,-13.05 4.17,-1.77 8.76,-3.41 11.72,-7.01 2.78,-4.38 0.5,-9.78 -1.67,-13.92 C 67.93,55.6 62.35,51.81 60.05,45.87 54.21,31.53 50.07,16.59 45.6,1.79 45.93,1.34 46.6,0.45 46.93,0 Z"
       id="path1" />
    <path
       fill="#000000"
       opacity="1"
       d="m 75.17,53.21 c 3.04,-4.75 6.18,-9.5 9.84,-13.8 1.13,0.62 2.09,1.46 2.86,2.5 -3.03,4.31 -5.92,8.72 -9.05,12.95 -1.03,2.06 -4.67,0.55 -3.65,-1.65 z"
       id="path2" />
    <path
       fill="#000000"
       opacity="1"
       d="m 79.98,64.22 c 4.6,-1.9 9.51,-2.98 14.18,-4.71 1.2,0.83 2.5,2.62 0.94,3.79 -4.27,1.72 -8.74,2.95 -13.14,4.32 -2.13,1.05 -4.01,-2.18 -1.98,-3.4 z"
       id="path3" />
    <path
       fill="#000000"
       opacity="1"
       d="m 79.34,78.67 c -0.65,-1.48 0.6,-2.42 1.53,-3.33 4.85,2.71 9.5,5.78 14.12,8.85 1.58,0.94 0.71,3.6 -1.09,3.57 -1.86,-0.35 -3.32,-1.72 -4.92,-2.64 -3.17,-2.22 -6.7,-3.93 -9.64,-6.45 z"
       id="path4" />
    <path
       fill="#000000"
       opacity="1"
       d="m 70.84,85.01 c 0.55,-0.45 1.65,-1.35 2.2,-1.8 2.27,1.5 2.56,4.35 3.41,6.71 0.77,2.67 1.88,5.26 2.37,8.01 -0.18,2.13 -3.64,2.5 -4.06,0.32 -1.35,-4.39 -3.2,-8.7 -3.92,-13.24 z"
       id="path5" />
  </g>
</svg>
