<?xml version="1.0" encoding="UTF-8" standalone="no"?>
<svg
   width="100pt"
   height="100pt"
   viewBox="0 0 100 100"
   version="1.1"
   id="svg5"
   sodipodi:docname="ssb-08.svg"
   inkscape:version="1.4.3 (0d15f75, 2025-12-25)"
   xml:space="preserve"
   xmlns:inkscape="http://www.inkscape.org/namespaces/inkscape"
   xmlns:sodipodi="http://sodipodi.sourceforge.net/DTD/sodipodi-0.dtd"
   xmlns="http://www.w3.org/2000/svg"
   xmlns:svg="http://www.w3.org/2000/svg"><defs
     id="defs5" /><sodipodi:namedview
     id="namedview5"
     pagecolor="#505050"
     bordercolor="#ffffff"
     borderopacity="1"
     inkscape:showpageshadow="0"
     inkscape:pageopacity="0"
     inkscape:pagecheckerboard="1"
     inkscape:deskcolor="#505050"
     inkscape:document-units="pt"
     inkscape:zoom="2.3467106"
     inkscape:cx="22.584804"
     inkscape:cy="70.950375"
     inkscape:window-width="1920"
     inkscape:window-height="1129"
     inkscape:window-x="1912"
     inkscape:window-y="-7"
     inkscape:window-maximized="1"
     inkscape:current-layer="svg5" /><g
     id="g6"
     transform="matrix(0.98868835,0,0,0.98868835,1.553681,0.56493435)"><g
       id="#ffffffff" /><g
       id="#040404ff"><path
         fill="#040404"
         opacity="1"
         d="m 57.18,2.15 c 10.47,0 20.94,0 31.41,0 -0.02,6.55 -0.02,13.11 0.01,19.66 0.82,0.07 2.46,0.22 3.28,0.29 -0.1,9.63 0,19.26 -0.05,28.9 -0.05,6.48 0.63,13.11 3.27,19.09 2.49,5.6 2.73,12.37 -0.11,17.88 -2.15,4 -6.92,5.5 -11.18,5.71 C 76.52,93.98 69.28,92.87 62,92.81 53.26,92.79 44.56,94.09 36.1,96.23 30.19,97.74 23.94,98.58 17.94,97.01 17.39,95.9 17.67,94.08 16.36,93.53 10.96,91.05 5.52,87.94 2.18,82.87 0.26,80.06 0.4,75.2 4.05,73.87 c 4.26,-1.4 8.87,-0.42 13.28,-0.78 0.05,-0.82 0.15,-2.45 0.2,-3.27 1.01,-0.92 2.4,-1.22 3.63,-1.74 9.28,-3.3 18.53,-6.69 27.79,-10.04 2.65,-0.78 5.02,-3.14 4.82,-6.06 0.08,-9.99 -0.01,-19.99 0.03,-29.98 0.84,-0.06 2.54,-0.18 3.38,-0.24 0,-6.54 0,-13.07 0,-19.61 m 3.2,3.26 c -0.01,2.62 -0.16,5.39 1.73,7.46 -2.35,2.48 -1.58,5.96 -1.62,9.03 8.25,-0.09 16.5,-0.04 24.75,-0.03 0,-5.49 0.06,-10.99 -0.05,-16.48 C 76.92,5.46 68.65,5.38 60.38,5.41 m -3.17,19.85 c -0.02,4.37 0,8.75 -0.03,13.13 10.45,0.08 20.91,0.01 31.36,0.04 0.03,-4.41 0.08,-8.81 -0.06,-13.21 -10.42,0.12 -20.85,0.06 -31.27,0.04 m 2.35,16.57 c 5.96,6.26 12.15,12.31 18.31,18.37 3.46,-3.63 7.23,-6.96 10.55,-10.71 0.29,-2.55 0.12,-5.12 0.16,-7.68 -9.67,-0.08 -19.35,-0.11 -29.02,0.02 m -2.32,2.66 c -0.32,4.29 0.88,9.16 -1.81,12.93 -1.85,2.81 -5.26,3.69 -8.21,4.85 9.26,9.32 18.47,18.73 27.95,27.83 4.64,0.49 9.64,0.92 14.02,-1.04 3.21,-1.38 3.85,-5.14 4.6,-8.15 C 81.64,68.74 69.54,56.5 57.24,44.49 m 22.97,18.15 c 4.47,4.18 8.51,8.81 13.16,12.79 -2.52,-6.76 -4.75,-13.69 -4.93,-20.99 -2.83,2.65 -5.53,5.42 -8.23,8.2 m -57.31,8.4 c 6.69,6.78 13.46,13.48 20.19,20.21 8.69,-1.7 17.57,-1.93 26.39,-1.54 C 60.97,81.05 52.38,72.44 43.7,63.95 L 42.91,63.82 C 36.2,66.11 29.58,68.68 22.9,71.04 m -2.06,2.86 c -0.19,6.82 -0.08,13.64 -0.06,20.46 6.23,0.85 12.36,-0.81 18.36,-2.29 C 33.04,86.01 27.06,79.83 20.84,73.9 M 3.79,77.84 c 1.57,6.51 8.06,9.84 13.59,12.52 0.12,-4.61 0.02,-9.22 0.09,-13.83 -4.55,0.23 -9.54,-1.13 -13.68,1.31 z"
         id="path1" /><path
         fill="#040404"
         opacity="1"
         d="m 63.31,6.4 c 1.92,-0.64 2.77,2.49 0.8,2.94 -1.86,0.61 -2.7,-2.52 -0.8,-2.94 z"
         id="path2" /><path
         fill="#040404"
         opacity="1"
         d="M 67.2,10.03 C 68.63,9.1 69.75,9.4 70.54,10.91 70.35,14.01 66,12.93 67.2,10.03 Z"
         id="path3" /><path
         fill="#040404"
         opacity="1"
         d="m 64.38,15.06 c 1.34,-1.58 3.52,0.95 2.09,2.24 -1.37,1.51 -3.42,-0.94 -2.09,-2.24 z"
         id="path4" /></g></g></svg>
