<?xml version="1.0" encoding="UTF-8" standalone="no"?>
<svg
   width="100pt"
   height="100pt"
   viewBox="0 0 100 100"
   version="1.1"
   id="svg5"
   sodipodi:docname="ssb-06.svg"
   inkscape:version="1.4.3 (0d15f75, 2025-12-25)"
   xml:space="preserve"
   xmlns:inkscape="http://www.inkscape.org/namespaces/inkscape"
   xmlns:sodipodi="http://sodipodi.sourceforge.net/DTD/sodipodi-0.dtd"
   xmlns="http://www.w3.org/2000/svg"
   xmlns:svg="http://www.w3.org/2000/svg"><defs
     id="defs5" /><sodipodi:namedview
     id="namedview5"
     pagecolor="#505050"
     bordercolor="#ffffff"
     borderopacity="1"
     inkscape:showpageshadow="0"
     inkscape:pageopacity="0"
     inkscape:pagecheckerboard="1"
     inkscape:deskcolor="#505050"
     inkscape:document-units="pt"
     inkscape:zoom="2.3467106"
     inkscape:cx="22.584804"
     inkscape:cy="70.950375"
     inkscape:window-width="1920"
     inkscape:window-height="1129"
     inkscape:window-x="1912"
     inkscape:window-y="-7"
     inkscape:window-maximized="1"
     inkscape:current-layer="svg5" /><g
     id="g6"
     transform="matrix(0.19880651,0,0,0.19880651,-5.8649169,5.8636378)"><g
       id="#f6f6f6ff" /><g
       id="#010101ff"><path
         fill="#010101"
         opacity="1"
         d="m 76.21,41.24 c 4.28,-4.59 11.96,-5.18 16.96,-1.45 2.79,2.19 5.05,4.96 7.65,7.37 3.09,2.96 6.52,6.29 6.74,10.86 0.65,4.49 -1.71,8.66 -4.85,11.66 5.96,5.92 11.86,11.91 17.85,17.8 3.98,-3.97 7.93,-7.97 11.93,-11.92 3.32,-3.39 8.61,-4.75 13.11,-3.15 4.25,1.28 6.84,5.16 9.97,8.03 3.01,3.3 7.1,6.02 8.42,10.51 1.2,3.55 0.43,7.44 -1.36,10.65 41.48,41.63 83.12,83.11 124.64,124.7 7.32,-2.64 15.21,-4.15 21.71,-8.66 12.45,-7.99 20.07,-22.79 19.46,-37.56 -1.86,-37.38 -3.79,-74.77 -5.65,-112.16 0.03,-3.84 3.4,-7.35 7.25,-7.49 3.53,-0.28 7.05,2.28 7.82,5.75 0.6,2.56 0.43,5.22 0.62,7.83 1.73,35.33 3.65,70.65 5.29,105.98 0.86,21.31 -11.18,42.46 -29.9,52.65 -6.41,3.79 -13.73,5.42 -20.67,7.94 -0.98,3.98 -3.95,6.92 -6.88,9.6 3.34,3.5 6.9,6.77 10.18,10.32 2.29,2.51 2.46,6.53 0.45,9.25 -1.68,2.15 -3.76,3.93 -5.64,5.89 9.93,9.76 19.69,19.7 29.59,29.5 1.63,1.6 3.25,3.49 3.47,5.87 0.53,4.26 -3.07,8.57 -7.41,8.55 -2.52,0.15 -4.81,-1.22 -6.46,-3.01 -9.99,-10.05 -20.03,-20.05 -30.06,-30.07 -3.47,3.55 -7.66,9.08 -13.33,6.36 -4.6,-3.06 -7.99,-7.65 -12.06,-11.37 -2.46,2.48 -4.84,5.37 -8.3,6.45 -4.36,1.55 -9.51,0.48 -12.82,-2.76 -4.55,-4.41 -8.97,-8.97 -13.47,-13.43 -25.06,13.44 -49.65,28.58 -69.9,48.76 -5.75,5.27 -13.25,7.97 -20.5,10.48 -10.01,3.18 -20.6,4.61 -31.09,3.89 -6.66,-0.22 -13.42,2.27 -18.13,7.02 -6.45,6.18 -9.08,16.19 -6.12,24.68 3.81,10.56 15.1,17.81 26.29,16.97 21.97,-1.14 43.93,-2.39 65.9,-3.49 3.33,-0.25 6.65,0.29 9.91,0.93 10.38,-11.41 20.71,-22.88 31.17,-34.22 3.96,-4.45 12.21,-1.73 12.87,4.14 0.96,4.28 -2.59,7.31 -5.13,10.15 -7.57,8.26 -15.13,16.54 -22.61,24.87 7.28,1.6 14.65,2.73 22.04,3.69 12.97,-14.22 25.85,-28.52 38.88,-42.69 3.73,-4.39 11.64,-2.27 12.88,3.29 1.59,4.96 -3,8.52 -5.9,11.79 -8.67,9.74 -17.78,19.11 -26.15,29.1 8.39,0.32 16.8,0.24 25.19,-0.08 12.23,-13.43 24.44,-26.86 36.64,-40.3 2.5,-2.76 5.08,-6.5 9.29,-6.18 5.86,-0.04 9.74,7.6 5.91,12.18 -9.54,10.82 -19.43,21.33 -29.01,32.12 10.38,-1.53 20.73,-3.64 30.63,-7.19 1.44,-0.43 2.6,-1.39 3.56,-2.51 9.68,-10.68 19.39,-21.34 29.09,-31.99 2.73,-3.31 8.19,-3.47 11.15,-0.38 2.98,2.77 3.02,7.9 0.15,10.77 -4.13,4.51 -8.21,9.07 -12.35,13.57 24.09,-0.42 48.1,1.88 71.93,5.25 13.2,1.29 26.54,4.86 39.8,2.14 18.9,-3.43 35.36,-17.01 42.93,-34.56 4.77,-10.84 5.96,-23.15 3.61,-34.74 -4.51,-21.15 -9.45,-42.2 -13.78,-63.38 -3.2,-17.06 -4.48,-34.48 -3.8,-51.83 2.49,-47.04 4.98,-94.07 7.51,-141.11 -0.36,-4.98 5.04,-9.35 9.81,-7.74 3.76,1.01 6.14,5.03 5.5,8.83 -2.03,38.35 -4.08,76.7 -6.11,115.05 -0.75,15.31 -2.03,30.63 -1.18,45.97 0.81,21.04 6.34,41.45 10.71,61.94 2.16,10 4.47,19.97 6.54,30 3.86,19.69 -0.72,40.88 -12.66,57.06 -14.35,20.16 -39.15,32.47 -63.96,30.78 -21.36,-1.94 -42.53,-5.83 -63.94,-7.33 -12.63,-0.94 -25.31,-1.29 -37.96,-0.92 -4.59,0.16 -7.94,3.62 -11.89,5.47 -11.96,6.07 -25.17,9.14 -38.31,11.35 -28.77,4.43 -58.23,4.44 -87,0.07 -9.76,-1.61 -19.48,-3.75 -28.81,-7.09 -2.56,-1.05 -5.34,-1.04 -8.05,-0.87 -21.66,1.13 -43.31,2.4 -64.98,3.43 -21.42,1.19 -42.82,-16.89 -42.83,-38.83 -0.78,-17.84 12.25,-34.9 29.51,-39.22 7.63,-2.33 15.62,-0.54 23.41,-1.49 8.63,-0.94 17.09,-3.44 24.87,-7.3 4.09,-2.05 6.96,-5.73 10.33,-8.7 18.74,-17.25 40.55,-30.74 62.77,-43 -34.24,-34.13 -68.36,-68.38 -102.58,-102.52 -4.28,2.43 -9.97,2.73 -14.05,-0.25 -3.03,-2.29 -5.47,-5.22 -8.2,-7.82 -2.61,-2.74 -5.88,-5.19 -7.03,-8.96 -1.52,-4.33 -0.38,-9.43 2.8,-12.73 4.05,-4.16 8.22,-8.21 12.32,-12.32 -5.9,-5.98 -11.88,-11.87 -17.79,-17.83 -3.05,3.09 -7.17,5.47 -11.67,4.82 -5.35,-0.26 -8.81,-4.75 -12.32,-8.2 C 48.29,92.09 45.59,90.01 43.8,87.17 40.91,82.35 41.71,75.63 45.77,71.71 55.87,61.51 66.06,51.39 76.21,41.24 M 58.46,80.69 c 1.94,1.86 3.83,3.76 5.69,5.7 9.03,-9.04 18.17,-17.98 27.05,-27.17 -1.92,-1.83 -3.79,-3.7 -5.68,-5.57 -9.03,9 -18.03,18.04 -27.06,27.04 m 26.8,6.28 c 6.01,5.92 11.97,11.9 17.89,17.91 2.19,-2.17 4.36,-4.34 6.53,-6.54 -6,-5.92 -11.95,-11.89 -17.89,-17.88 -2.17,2.18 -4.34,4.36 -6.53,6.51 m 7.75,49.91 c 2.24,2.09 4.38,4.28 6.54,6.45 16.2,-16.21 32.48,-32.33 48.58,-48.64 -2.2,-2.14 -4.37,-4.31 -6.55,-6.47 -16.19,16.22 -32.48,32.34 -48.57,48.66 m 24.48,10.23 c 41.75,41.67 83.4,83.44 125.17,125.1 11.45,-11.45 22.85,-22.96 34.39,-34.33 -41.66,-41.78 -83.45,-83.42 -125.11,-125.2 -11.45,11.5 -22.92,22.99 -34.45,34.43 m 148.45,123.48 c 1.38,1.49 2.81,2.94 4.25,4.39 3.24,-3.17 6.42,-6.4 9.6,-9.63 -1.46,-1.4 -2.91,-2.82 -4.35,-4.24 -3.16,3.16 -6.29,6.36 -9.5,9.48 z"
         id="path1-2" /><path
         fill="#010101"
         opacity="1"
         d="m 158.53,139.64 c 4.53,-1.93 10.12,1.44 10.47,6.36 0.62,4.95 -4.09,7.82 -6.99,11.01 -3.07,2.67 -5.48,6.94 -9.96,7.21 -4.85,0.42 -9.16,-4.58 -7.94,-9.3 0.73,-3.41 3.85,-5.41 6.06,-7.83 2.75,-2.51 4.98,-5.74 8.36,-7.45 z"
         id="path2-7" /><path
         fill="#010101"
         opacity="1"
         d="m 185.21,167.05 c 4.85,-2.55 11.21,1.51 11.06,6.95 -0.02,4.59 -4.37,7.12 -7.08,10.19 -3.43,3.14 -6.73,8.47 -12.16,7.01 -5.61,-1.01 -7.9,-8.89 -3.74,-12.74 3.96,-3.81 7.51,-8.14 11.92,-11.41 z"
         id="path3-6" /><path
         fill="#010101"
         opacity="1"
         d="m 211.57,194.72 c 4.67,-3.38 11.97,0.5 11.86,6.23 0.19,4.74 -4.29,7.4 -7.09,10.51 -3.28,2.93 -6.18,7.85 -11.27,7.07 -5.78,-0.36 -8.89,-8.07 -5.06,-12.38 3.76,-3.89 7.52,-7.83 11.56,-11.43 z"
         id="path4-1" /><path
         fill="#010101"
         opacity="1"
         d="m 240.21,221.2 c 4.58,-2.03 10.35,1.78 10.37,6.77 0.41,4.76 -4.19,7.43 -6.96,10.55 -3.19,2.77 -5.79,7.46 -10.59,7.23 -4.46,0.13 -8.2,-4.35 -7.45,-8.72 0.49,-3.66 3.83,-5.78 6.13,-8.31 2.8,-2.52 5.02,-5.89 8.5,-7.52 z"
         id="path5-4" /></g></g></svg>
