<?xml version="1.0" encoding="UTF-8" standalone="no"?>
<svg
   width="100pt"
   height="100pt"
   viewBox="0 0 100 100"
   version="1.1"
   id="svg5"
   sodipodi:docname="ssb-02.svg"
   inkscape:version="1.4.3 (0d15f75, 2025-12-25)"
   xml:space="preserve"
   xmlns:inkscape="http://www.inkscape.org/namespaces/inkscape"
   xmlns:sodipodi="http://sodipodi.sourceforge.net/DTD/sodipodi-0.dtd"
   xmlns="http://www.w3.org/2000/svg"
   xmlns:svg="http://www.w3.org/2000/svg"><defs
     id="defs5" /><sodipodi:namedview
     id="namedview5"
     pagecolor="#505050"
     bordercolor="#ffffff"
     borderopacity="1"
     inkscape:showpageshadow="0"
     inkscape:pageopacity="0"
     inkscape:pagecheckerboard="1"
     inkscape:deskcolor="#505050"
     inkscape:document-units="pt"
     inkscape:zoom="2.3467106"
     inkscape:cx="22.584804"
     inkscape:cy="70.950375"
     inkscape:window-width="1920"
     inkscape:window-height="1129"
     inkscape:window-x="1912"
     inkscape:window-y="-7"
     inkscape:window-maximized="1"
     inkscape:current-layer="svg5" /><g
     id="#000000fd"
     transform="matrix(0.95688961,0,0,0.95688961,1.8110392,2.0044281)"><path
       fill="#000000"
       opacity="1"
       d="m 32.87,17.9 c 2.51,-5.18 8.63,-7.56 14.13,-7.16 2.97,0.35 5.47,2.14 8.02,3.56 2.96,-1.88 6.16,-4.44 9.91,-3.44 3.46,0.32 5.06,3.68 6.81,6.19 3.01,0.71 6.79,0.61 8.79,3.36 1.16,2.5 1.28,5.33 1.78,8.01 2.22,0.81 4.58,1.39 6.57,2.72 1.86,1.94 2.42,4.74 4.06,6.85 2.13,1.91 5.75,2.8 6.15,6.09 0.76,5.64 -0.98,11.25 -0.79,16.9 0.2,8.89 0.66,17.8 1.7,26.63 v 2.07 C 98.82,89.28 97.63,88.9 96.44,88.54 95.81,74.99 94.6,61.37 95.91,47.82 c -1.69,-0.08 -3.37,-0.18 -5.06,-0.29 -0.77,3.45 -1.46,6.93 -2.04,10.42 -0.73,0.04 -2.19,0.13 -2.92,0.18 0.32,-6.84 2.2,-13.49 2.46,-20.33 -2.39,-0.17 -4.78,-0.35 -7.16,-0.52 -1.05,5.45 -1.63,10.98 -2.68,16.44 -1.06,0.08 -2.12,0.16 -3.19,0.24 0.87,-9.25 3.72,-18.28 3.42,-27.64 -2.76,-0.06 -5.51,-0.08 -8.27,-0.06 -0.42,7.16 -0.67,14.34 -1.65,21.45 -0.66,0.01 -1.98,0.05 -2.64,0.07 -0.02,-9.09 1.5,-18.09 1.63,-27.17 -3.29,0.05 -6.58,0.05 -9.87,0.02 -0.87,8.73 -0.95,17.54 -2.41,26.21 -1.01,-0.1 -2.01,-0.2 -3.01,-0.29 0.37,-5.51 1.24,-10.99 1.24,-16.52 -0.02,-4.47 0.49,-9.16 -1.45,-13.35 -0.75,3.18 -1.01,6.48 -2.11,9.56 -2.66,2.29 -6.64,2 -9.87,1.4 -4.38,-0.99 -3,-6.58 -3.87,-9.85 -4.03,8.61 -2.3,18.44 -5.03,27.41 1.31,0.38 2.61,0.78 3.91,1.19 -2.52,3.11 -6.36,5.17 -7.93,8.99 -2.69,6.27 -2.2,13.9 1.61,19.61 1.94,2.9 5.36,4.13 8.32,5.66 0.14,0.55 0.43,1.63 0.57,2.17 -2.3,-0.19 -4.59,-0.39 -6.88,-0.62 0.66,2.27 1.27,4.55 1.9,6.83 -0.7,0.01 -2.08,0.02 -2.78,0.03 C 26.16,80.93 22.7,72.15 22.58,62.99 22.5,53.05 29.51,44.88 30.08,35.06 30.85,29.34 30.27,23.22 32.87,17.9 m 7.4,-2.77 c -0.23,3.14 -0.21,6.3 0.22,9.42 2.37,0.2 4.74,0.21 7.1,0.02 0.88,-3.4 1.18,-6.92 1.21,-10.43 -2.89,-0.26 -5.81,-0.09 -8.53,0.99 M 60.4,14.29 c -0.14,0.69 -0.43,2.09 -0.57,2.79 2.03,0.76 4.21,0.91 6.22,-0.02 -0.06,-0.74 -0.18,-2.21 -0.24,-2.94 -1.8,-0.01 -3.61,0.05 -5.41,0.17 m 11.69,8.74 c 2.03,0.1 4.07,0.1 6.11,-0.01 -1.04,-2.45 -6.46,-3.62 -6.11,0.01 m 10.65,8.93 c -0.29,2.58 2.44,2.62 4.25,2.95 -0.22,-2.2 -2.59,-2.4 -4.25,-2.95 m 10.44,10.28 c -1.66,0.34 -0.91,2.97 0.68,2.45 1.66,-0.34 0.9,-2.98 -0.68,-2.45 z"
       id="path1" /><path
       fill="#000000"
       opacity="1"
       d="m 38.92,32.33 c 2.95,-0.13 5.91,-0.11 8.86,0.02 -0.03,1.09 -0.04,2.19 -0.04,3.28 -2.89,0.08 -5.79,0.09 -8.68,-0.01 -0.06,-1.1 -0.1,-2.19 -0.14,-3.29 z"
       id="path2" /><path
       fill="#000000"
       opacity="1"
       d="m 4.86,38.34 c 4.09,0.86 8.18,1.76 12.22,2.82 -0.92,1.57 -1.84,3.14 -2.8,4.68 2.15,0.48 4.3,0.99 6.45,1.46 0.04,0.71 0.11,2.11 0.15,2.82 -4.39,-0.1 -8.63,-1.26 -12.84,-2.36 0.94,-1.54 1.87,-3.08 2.81,-4.62 -2.23,-0.53 -4.46,-1.09 -6.69,-1.65 0.24,-1.05 0.48,-2.1 0.7,-3.15 z"
       id="path3" /><path
       fill="#000000"
       opacity="1"
       d="m 39.21,38.35 c 2.85,-0.1 5.7,-0.1 8.54,0.01 -0.01,1.09 -0.01,2.19 0,3.28 -2.84,0.11 -5.68,0.11 -8.53,0 0.01,-1.09 0.01,-2.19 -0.01,-3.29 z"
       id="path4" /><path
       fill="#000000"
       opacity="1"
       d="m 0.72,60.06 c 3.05,-3.02 7.23,-4.54 11.07,-6.32 0.14,1.73 0.27,3.45 0.39,5.18 2.26,-1.08 4.53,-2.12 6.84,-3.08 0.27,0.93 0.53,1.87 0.76,2.81 C 16.33,60.81 12.76,62.8 8.96,64.27 8.8,62.57 8.66,60.87 8.52,59.16 6.17,60.23 3.88,61.81 1.2,61.83 1.08,61.39 0.84,60.5 0.72,60.06 Z"
       id="path5" /><path
       fill="#000000"
       opacity="1"
       d="m 16.28,67.03 c 0.88,0.41 1.76,0.79 2.65,1.16 -1.57,4.12 -3.67,8.01 -5.84,11.84 C 11.99,78.59 10.88,77.14 9.78,75.7 8.59,77.81 7.34,79.88 6.06,81.94 5.48,81.66 4.32,81.11 3.74,80.83 4.79,76.59 7.19,72.9 9.22,69.1 c 1.2,1.32 2.42,2.62 3.62,3.95 1.14,-2.01 2.29,-4.02 3.44,-6.02 z"
       id="path6" /></g></svg>
