<?xml version="1.0" encoding="UTF-8" standalone="no"?>
<svg
   width="100pt"
   height="100pt"
   viewBox="0 0 100 100"
   version="1.1"
   id="svg5"
   sodipodi:docname="ssb-07.svg"
   inkscape:version="1.4.3 (0d15f75, 2025-12-25)"
   xml:space="preserve"
   xmlns:inkscape="http://www.inkscape.org/namespaces/inkscape"
   xmlns:sodipodi="http://sodipodi.sourceforge.net/DTD/sodipodi-0.dtd"
   xmlns="http://www.w3.org/2000/svg"
   xmlns:svg="http://www.w3.org/2000/svg"><defs
     id="defs5" /><sodipodi:namedview
     id="namedview5"
     pagecolor="#505050"
     bordercolor="#ffffff"
     borderopacity="1"
     inkscape:showpageshadow="0"
     inkscape:pageopacity="0"
     inkscape:pagecheckerboard="1"
     inkscape:deskcolor="#505050"
     inkscape:document-units="pt"
     inkscape:zoom="2.3467106"
     inkscape:cx="22.584804"
     inkscape:cy="70.950375"
     inkscape:window-width="1920"
     inkscape:window-height="1129"
     inkscape:window-x="1912"
     inkscape:window-y="-7"
     inkscape:window-maximized="1"
     inkscape:current-layer="svg5" /><g
     id="g6"
     transform="matrix(1.0249679,0,0,1.0249679,-8.2270911,-0.87641993)"><g
       id="#ffffffff" /><g
       id="#090909ff"><path
         fill="#090909"
         opacity="1"
         d="m 45.97,8.8 c 2.19,-2.88 5.15,-5.65 9.06,-5.49 5.85,-0.31 10.51,5.15 10.39,10.8 5.95,-1.14 12.06,3.03 12.35,9.25 5.15,-1.07 10.35,2.38 10.82,7.71 2.83,0.01 6.07,-0.1 8.16,2.17 2.48,2.18 2.46,5.72 2.52,8.76 -0.11,8.36 0.54,16.78 -0.61,25.1 -1.31,9.6 -2.85,19.17 -4.03,28.78 -0.78,0.02 -2.34,0.07 -3.12,0.09 1.3,-14.68 5.3,-29.13 4.53,-43.95 -0.37,-4.92 0.51,-9.91 -0.33,-14.8 -0.95,-3.17 -4.66,-3.11 -7.35,-3.06 0,0.79 0,2.36 -0.01,3.14 1.5,-0.02 3,-0.03 4.49,-0.05 0.04,0.78 0.11,2.33 0.14,3.11 -1.54,0.02 -3.08,0.01 -4.62,0.02 -0.01,6.71 -0.02,13.41 0,20.12 -0.81,-0.06 -2.41,-0.17 -3.21,-0.22 0.19,-8.76 0,-17.51 0.1,-26.27 -0.07,-2.04 0.31,-4.42 -1.25,-6.04 -1.59,-1.9 -4.25,-1.38 -6.43,-1.53 -0.01,1.04 -0.02,2.08 -0.02,3.12 1.55,0 3.1,-0.01 4.65,-0.01 0.01,0.78 0.02,2.32 0.02,3.09 -1.55,0.02 -3.09,0.01 -4.64,0.02 -0.06,6.22 0.02,12.45 -0.05,18.67 -0.79,-0.08 -2.37,-0.24 -3.15,-0.32 0.05,-9.66 0.23,-19.34 -0.08,-28.99 -0.84,-4.14 -5.4,-5.28 -9.04,-4.82 -0.01,1.55 -0.01,3.09 -0.01,4.63 1.99,-0.01 3.99,-0.03 5.99,-0.05 0.12,0.99 0.23,1.99 0.35,2.98 -2.12,0.15 -4.24,0.19 -6.35,0.28 0.02,7.19 0,14.38 0.01,21.57 -0.79,-0.03 -2.36,-0.08 -3.15,-0.11 0.1,-10.85 0.03,-21.7 0.04,-32.55 0.19,-3.27 -2.01,-6.53 -5.24,-7.31 -4.04,-1.19 -8.64,2.22 -8.58,6.45 -0.11,8.09 -0.01,16.19 -0.04,24.28 -0.79,-0.04 -2.37,-0.11 -3.17,-0.14 0.1,-7.08 0.11,-14.16 0.03,-21.24 -0.11,-4.92 -4.32,-9.23 -9.22,-9.54 -5.33,-0.52 -10.62,4 -10.69,9.4 -0.19,5.72 0.14,11.45 -0.12,17.16 -1.48,1.86 -4.17,2.44 -5.48,4.54 -2.16,2.66 -2.31,6.2 -2.2,9.47 0.16,3.97 -0.66,8.36 1.68,11.89 2.72,4.21 7.98,5.39 11.84,8.22 0.71,1.5 0.26,3.24 0.39,4.84 -0.07,8 0.04,16.01 -0.06,24.01 -0.77,-0.03 -2.3,-0.1 -3.07,-0.13 0,-8.93 0.01,-17.86 0,-26.79 C 23.7,66.33 18.07,64.38 15.75,59.22 13.45,54.48 14.56,49.04 14.35,43.97 14.22,38.78 17.48,34.04 21.94,31.6 22.41,25.7 21.73,19.75 22.32,13.86 23.5,6.89 31.05,1.93 37.93,3.63 c 3.31,0.53 5.82,2.84 8.04,5.17 z"
         id="path1" /><path
         fill="#090909"
         opacity="1"
         d="m 51.34,12.57 c 2.61,0 5.22,0.01 7.83,0.08 -0.03,1.01 -0.06,2.02 -0.09,3.03 -2.59,0.01 -5.18,0.02 -7.77,0.03 0.01,-1.05 0.02,-2.1 0.03,-3.14 z"
         id="path2" /><path
         fill="#090909"
         opacity="1"
         d="m 28.31,18.67 c 4.62,0.14 9.25,0 13.87,0.11 -0.02,1.03 -0.04,2.06 -0.06,3.09 -4.65,-0.05 -9.3,0 -13.95,-0.02 0.05,-1.06 0.09,-2.12 0.14,-3.18 z"
         id="path3" /><path
         fill="#090909"
         opacity="1"
         d="m 33.58,33.42 c 1.04,-0.03 2.09,-0.05 3.14,-0.06 -0.02,1.6 -0.05,3.21 -0.09,4.82 -1,-0.01 -2.01,-0.03 -3.01,-0.04 -0.02,-1.57 -0.03,-3.15 -0.04,-4.72 z"
         id="path4" /><path
         fill="#090909"
         opacity="1"
         d="m 41.2,34.54 c 0.85,0.54 1.7,1.08 2.56,1.62 -0.69,1.29 -1.39,2.58 -2.06,3.88 -0.96,-0.4 -1.93,-0.8 -2.89,-1.21 0.75,-1.46 1.54,-2.89 2.39,-4.29 z"
         id="path5" /><path
         fill="#090909"
         opacity="1"
         d="m 26.51,36.22 c 0.87,-0.58 1.73,-1.15 2.59,-1.73 0.8,1.38 1.6,2.76 2.38,4.15 -0.86,0.53 -1.71,1.06 -2.57,1.59 -0.84,-1.32 -1.64,-2.65 -2.4,-4.01 z"
         id="path6" /><path
         fill="#090909"
         opacity="1"
         d="m 23.25,39.41 c 1.38,0.77 2.73,1.59 4.01,2.51 -0.52,0.84 -1.05,1.69 -1.57,2.53 -1.34,-0.8 -2.68,-1.6 -4.02,-2.41 0.53,-0.88 1.06,-1.76 1.58,-2.63 z"
         id="path7" /><path
         fill="#090909"
         opacity="1"
         d="m 43.08,41.64 c 1.33,-0.75 2.65,-1.5 3.98,-2.26 0.52,0.89 1.04,1.77 1.57,2.66 -1.31,0.82 -2.56,1.77 -4.01,2.34 -0.59,-0.87 -1.07,-1.81 -1.54,-2.74 z"
         id="path8" /><path
         fill="#090909"
         opacity="1"
         d="m 20.5,46.52 c 1.57,0.01 3.13,0.02 4.7,0.03 0.01,1.02 0.01,2.04 0.02,3.06 -1.58,0.02 -3.15,0.04 -4.73,0.06 0,-1.05 0,-2.1 0.01,-3.15 z"
         id="path9" /><path
         fill="#090909"
         opacity="1"
         d="m 45.21,46.51 c 1.52,0.01 3.03,0.01 4.55,0 0.01,1.05 0.01,2.11 0.02,3.16 -1.53,0 -3.06,0 -4.59,0 0.01,-1.06 0.01,-2.11 0.02,-3.16 z"
         id="path10" /><path
         fill="#090909"
         opacity="1"
         d="m 21.73,54.09 c 1.29,-0.8 2.58,-1.59 3.86,-2.4 0.59,0.94 1.11,1.92 1.58,2.93 -1.34,0.69 -2.66,1.42 -4,2.13 -0.47,-0.89 -0.95,-1.78 -1.44,-2.66 z"
         id="path11" /><path
         fill="#090909"
         opacity="1"
         d="m 43.09,54.55 c 0.51,-0.97 1.07,-1.93 1.65,-2.86 1.28,0.81 2.57,1.6 3.87,2.39 -0.52,0.89 -1.03,1.79 -1.54,2.68 -1.32,-0.74 -2.64,-1.48 -3.98,-2.21 z"
         id="path12" /><path
         fill="#090909"
         opacity="1"
         d="m 26.48,60.06 c 0.78,-1.39 1.58,-2.77 2.39,-4.14 0.89,0.53 1.77,1.06 2.65,1.59 -0.79,1.37 -1.57,2.74 -2.39,4.1 -0.88,-0.52 -1.77,-1.04 -2.65,-1.55 z"
         id="path13" /><path
         fill="#090909"
         opacity="1"
         d="m 38.9,57.27 c 0.9,-0.4 1.81,-0.8 2.72,-1.2 0.72,1.32 1.46,2.63 2.2,3.95 -0.91,0.52 -1.82,1.04 -2.73,1.57 -0.8,-1.41 -1.55,-2.84 -2.19,-4.32 z"
         id="path14" /><path
         fill="#090909"
         opacity="1"
         d="m 33.56,62.75 c 0.02,-1.61 0.07,-3.21 0.17,-4.81 0.75,0.06 2.25,0.19 3,0.26 -0.01,1.52 -0.02,3.05 -0.03,4.57 -1.05,-0.01 -2.1,-0.01 -3.14,-0.02 z"
         id="path15" /></g></g></svg>
